<svg xmlns="http://www.w3.org/2000/svg" xmlns:xlink="http://www.w3.org/1999/xlink" width="200" zoomAndPan="magnify" viewBox="0 0 150 149.999998" height="200" preserveAspectRatio="xMidYMid meet" version="1.0"><defs><g/><clipPath id="19fc8f1f88"><path d="M 38.375 15 L 111.609375 15 L 111.609375 95.746094 L 38.375 95.746094 Z M 38.375 15 " clip-rule="nonzero"/></clipPath><clipPath id="28a8761785"><path d="M 38.375 15 L 111 15 L 111 76 L 38.375 76 Z M 38.375 15 " clip-rule="nonzero"/></clipPath><clipPath id="2802cc0265"><path d="M 74 34 L 111.609375 34 L 111.609375 76 L 74 76 Z M 74 34 " clip-rule="nonzero"/></clipPath></defs><g clip-path="url(#19fc8f1f88)"><path fill="#00c853" d="M 72.890625 15.738281 C 74.191406 15.007812 75.792969 15.007812 77.09375 15.738281 C 83.527344 19.339844 102.886719 30.1875 109.324219 33.789062 C 110.625 34.515625 111.425781 35.863281 111.425781 37.320312 C 111.425781 44.527344 111.425781 66.214844 111.425781 73.421875 C 111.425781 74.878906 110.625 76.226562 109.324219 76.957031 C 102.890625 80.558594 83.53125 91.402344 77.09375 95.007812 C 75.792969 95.734375 74.191406 95.734375 72.890625 95.007812 C 66.457031 91.402344 47.097656 80.558594 40.660156 76.957031 C 39.363281 76.226562 38.558594 74.882812 38.558594 73.421875 C 38.558594 66.21875 38.558594 44.527344 38.558594 37.324219 C 38.558594 35.867188 39.363281 34.519531 40.664062 33.789062 C 47.09375 30.1875 66.457031 19.339844 72.890625 15.738281 Z M 72.890625 15.738281 " fill-opacity="1" fill-rule="nonzero"/></g><g clip-path="url(#28a8761785)"><path fill="#69f0ae" d="M 39.144531 75.277344 C 38.632812 74.597656 38.558594 73.953125 38.558594 73.082031 C 38.558594 65.917969 38.558594 44.351562 38.558594 37.1875 C 38.558594 35.738281 39.359375 34.398438 40.65625 33.675781 C 47.066406 30.09375 66.363281 19.3125 72.773438 15.726562 C 74.070312 15 75.828125 15.015625 77.128906 15.742188 C 83.539062 19.324219 102.765625 30.015625 109.175781 33.597656 C 109.695312 33.886719 110.089844 34.238281 110.441406 34.699219 Z M 39.144531 75.277344 " fill-opacity="1" fill-rule="nonzero"/></g><path fill="#ffffff" d="M 74.992188 28.585938 C 60.171875 28.585938 48.148438 40.582031 48.148438 55.371094 C 48.148438 70.164062 60.171875 82.160156 74.992188 82.160156 C 89.816406 82.160156 101.839844 70.164062 101.839844 55.371094 C 101.839844 40.582031 89.816406 28.585938 74.992188 28.585938 Z M 74.992188 68.765625 C 67.589844 68.765625 61.570312 62.757812 61.570312 55.371094 C 61.570312 47.988281 67.589844 41.980469 74.992188 41.980469 C 82.394531 41.980469 88.414062 47.988281 88.414062 55.371094 C 88.414062 62.757812 82.394531 68.765625 74.992188 68.765625 Z M 74.992188 68.765625 " fill-opacity="1" fill-rule="nonzero"/><g clip-path="url(#2802cc0265)"><path fill="#00e676" d="M 110.4375 34.71875 C 111.429688 35.640625 111.410156 37.035156 111.410156 38.132812 C 111.410156 45.390625 111.347656 66.046875 111.425781 73.304688 C 111.433594 74.0625 111.183594 74.863281 110.808594 75.460938 L 74.210938 55.371094 Z M 110.4375 34.71875 " fill-opacity="1" fill-rule="nonzero"/></g><path fill="#ffffff" d="M 94.167969 47.71875 L 96.085938 47.71875 L 96.085938 63.027344 L 94.167969 63.027344 Z M 99.921875 47.71875 L 101.839844 47.71875 L 101.839844 63.027344 L 99.921875 63.027344 Z M 99.921875 47.71875 " fill-opacity="1" fill-rule="nonzero"/><path fill="#ffffff" d="M 90.332031 57.285156 L 105.671875 57.285156 L 105.671875 59.199219 L 90.332031 59.199219 Z M 90.332031 51.546875 L 105.671875 51.546875 L 105.671875 53.457031 L 90.332031 53.457031 Z M 90.332031 51.546875 " fill-opacity="1" fill-rule="nonzero"/><g fill="#ffffff" fill-opacity="1"><g transform="translate(55.53511, 128.573806)"><g><path d="M 0.765625 -8.21875 C 0.765625 -9.84375 1.113281 -11.285156 1.8125 -12.546875 C 2.519531 -13.816406 3.5 -14.804688 4.75 -15.515625 C 6.007812 -16.222656 7.429688 -16.578125 9.015625 -16.578125 C 10.960938 -16.578125 12.628906 -16.0625 14.015625 -15.03125 C 15.398438 -14.007812 16.328125 -12.613281 16.796875 -10.84375 L 12.40625 -10.84375 C 12.070312 -11.519531 11.601562 -12.035156 11 -12.390625 C 10.40625 -12.753906 9.726562 -12.9375 8.96875 -12.9375 C 7.738281 -12.9375 6.738281 -12.507812 5.96875 -11.65625 C 5.207031 -10.800781 4.828125 -9.65625 4.828125 -8.21875 C 4.828125 -6.789062 5.207031 -5.644531 5.96875 -4.78125 C 6.738281 -3.925781 7.738281 -3.5 8.96875 -3.5 C 9.726562 -3.5 10.40625 -3.675781 11 -4.03125 C 11.601562 -4.394531 12.070312 -4.921875 12.40625 -5.609375 L 16.796875 -5.609375 C 16.328125 -3.828125 15.398438 -2.425781 14.015625 -1.40625 C 12.628906 -0.394531 10.960938 0.109375 9.015625 0.109375 C 7.429688 0.109375 6.007812 -0.242188 4.75 -0.953125 C 3.5 -1.660156 2.519531 -2.644531 1.8125 -3.90625 C 1.113281 -5.164062 0.765625 -6.601562 0.765625 -8.21875 Z M 0.765625 -8.21875 "/></g></g></g><g fill="#ffffff" fill-opacity="1"><g transform="translate(73.339074, 128.573806)"><g><path d="M 16.703125 -10.234375 L 16.046875 -7.171875 L 18.84375 -7.171875 L 18.84375 -3.578125 L 15.28125 -3.578125 L 14.5 0 L 10.765625 0 L 11.546875 -3.578125 L 7.65625 -3.578125 L 6.890625 0 L 3.15625 0 L 3.921875 -3.578125 L 0.46875 -3.578125 L 0.46875 -7.171875 L 4.6875 -7.171875 L 5.34375 -10.234375 L 1.96875 -10.234375 L 1.96875 -13.828125 L 6.09375 -13.828125 L 6.84375 -17.28125 L 10.578125 -17.28125 L 9.828125 -13.828125 L 13.71875 -13.828125 L 14.453125 -17.28125 L 18.203125 -17.28125 L 17.453125 -13.828125 L 20.34375 -13.828125 L 20.34375 -10.234375 Z M 12.96875 -10.234375 L 9.09375 -10.234375 L 8.4375 -7.171875 L 12.3125 -7.171875 Z M 12.96875 -10.234375 "/></g></g></g></svg>