<svg xmlns="http://www.w3.org/2000/svg" xmlns:xlink="http://www.w3.org/1999/xlink" width="200" zoomAndPan="magnify" viewBox="0 0 150 149.999998" height="200" preserveAspectRatio="xMidYMid meet" version="1.0"><defs><g/><clipPath id="b8dc54c71e"><path d="M 39.535156 15 L 110.265625 15 L 110.265625 95.746094 L 39.535156 95.746094 Z M 39.535156 15 " clip-rule="nonzero"/></clipPath></defs><g clip-path="url(#b8dc54c71e)"><path fill="#e44d26" d="M 45.957031 87.496094 L 39.515625 15.226562 L 110.285156 15.226562 L 103.839844 87.488281 L 74.855469 95.519531 Z M 45.957031 87.496094 " fill-opacity="1" fill-rule="nonzero"/></g><path fill="#f16529" d="M 98.320312 82.882812 L 103.828125 21.136719 L 74.898438 21.136719 L 74.898438 89.382812 Z M 98.320312 82.882812 " fill-opacity="1" fill-rule="nonzero"/><path fill="#ebebeb" d="M 74.871094 30 L 52.683594 30 L 55.074219 56.800781 L 74.898438 56.800781 L 74.898438 47.941406 L 63.175781 47.941406 L 62.367188 38.863281 L 74.898438 38.863281 L 74.898438 30 Z M 74.898438 70.929688 L 74.863281 70.941406 L 64.996094 68.273438 L 64.367188 61.207031 L 55.46875 61.207031 L 56.710938 75.125 L 74.859375 80.140625 L 74.898438 80.128906 Z M 74.898438 70.929688 " fill-opacity="1" fill-rule="nonzero"/><path fill="#ffffff" d="M 74.871094 56.800781 L 85.78125 56.800781 L 84.777344 68.296875 L 74.894531 70.960938 L 74.894531 80.183594 L 93.058594 75.148438 L 95.492188 47.933594 L 74.898438 47.933594 Z M 96.851562 32.378906 L 97.0625 30 L 74.863281 30 L 74.863281 38.859375 L 96.265625 38.859375 L 96.441406 36.867188 Z M 96.851562 32.378906 " fill-opacity="1" fill-rule="nonzero"/><g fill="#1a1a1a" fill-opacity="1"><g transform="translate(43.256171, 128.573784)"><g><path d="M 15.65625 -16.390625 L 15.65625 0 L 11.65625 0 L 11.65625 -6.75 L 5.4375 -6.75 L 5.4375 0 L 1.453125 0 L 1.453125 -16.390625 L 5.4375 -16.390625 L 5.4375 -9.96875 L 11.65625 -9.96875 L 11.65625 -16.390625 Z M 15.65625 -16.390625 "/></g></g></g><g fill="#1a1a1a" fill-opacity="1"><g transform="translate(60.335823, 128.573784)"><g><path d="M 13.25 -16.390625 L 13.25 -13.203125 L 8.90625 -13.203125 L 8.90625 0 L 4.90625 0 L 4.90625 -13.203125 L 0.5625 -13.203125 L 0.5625 -16.390625 Z M 13.25 -16.390625 "/></g></g></g><g fill="#1a1a1a" fill-opacity="1"><g transform="translate(74.144407, 128.573784)"><g><path d="M 20.015625 -16.390625 L 20.015625 0 L 16.03125 0 L 16.03125 -9.828125 L 12.359375 0 L 9.140625 0 L 5.4375 -9.859375 L 5.4375 0 L 1.453125 0 L 1.453125 -16.390625 L 6.171875 -16.390625 L 10.765625 -5.046875 L 15.328125 -16.390625 Z M 20.015625 -16.390625 "/></g></g></g><g fill="#1a1a1a" fill-opacity="1"><g transform="translate(95.593281, 128.573784)"><g><path d="M 5.4375 -3.078125 L 10.671875 -3.078125 L 10.671875 0 L 1.453125 0 L 1.453125 -16.390625 L 5.4375 -16.390625 Z M 5.4375 -3.078125 "/></g></g></g></svg>