<svg xmlns="http://www.w3.org/2000/svg" xmlns:xlink="http://www.w3.org/1999/xlink" width="200" zoomAndPan="magnify" viewBox="0 0 150 149.999998" height="200" preserveAspectRatio="xMidYMid meet" version="1.0"><defs><g/><clipPath id="27d41a8fa3"><path d="M 43 15 L 104 15 L 104 98.535156 L 43 98.535156 Z M 43 15 " clip-rule="nonzero"/></clipPath></defs><path fill="#4e7896" d="M 64.496094 78.332031 C 64.496094 78.332031 61.351562 80.246094 66.683594 80.792969 C 73.105469 81.613281 76.523438 81.476562 83.628906 80.109375 C 83.628906 80.109375 85.542969 81.339844 88.136719 82.296875 C 72.148438 89.136719 51.921875 81.886719 64.496094 78.332031 Z M 62.445312 69.441406 C 62.445312 69.441406 59.027344 72.039062 64.359375 72.585938 C 71.328125 73.269531 76.796875 73.40625 86.226562 71.492188 C 86.226562 71.492188 87.453125 72.859375 89.503906 73.542969 C 70.234375 79.289062 48.640625 74.089844 62.445312 69.441406 Z M 100.164062 85.03125 C 100.164062 85.03125 102.488281 86.945312 97.570312 88.453125 C 88.410156 91.1875 59.167969 92.007812 50.964844 88.453125 C 48.097656 87.222656 53.5625 85.441406 55.339844 85.167969 C 57.117188 84.757812 58.070312 84.757812 58.070312 84.757812 C 54.929688 82.570312 37.164062 89.273438 49.050781 91.1875 C 81.714844 96.519531 108.636719 88.863281 100.164062 85.03125 Z M 66 60.136719 C 66 60.136719 51.105469 63.695312 60.671875 64.925781 C 64.769531 65.472656 72.832031 65.335938 80.347656 64.789062 C 86.5 64.242188 92.648438 63.144531 92.648438 63.144531 C 92.648438 63.144531 90.460938 64.105469 88.960938 65.0625 C 73.789062 69.027344 44.679688 67.25 53.015625 63.144531 C 60.121094 59.726562 66 60.136719 66 60.136719 Z M 92.648438 75.046875 C 107.953125 67.113281 100.847656 59.453125 95.929688 60.410156 C 94.699219 60.683594 94.152344 60.957031 94.152344 60.957031 C 94.152344 60.957031 94.5625 60.136719 95.519531 59.863281 C 105.222656 56.445312 112.875 70.121094 92.375 75.457031 C 92.375 75.457031 92.511719 75.320312 92.648438 75.046875 Z M 67.503906 96.660156 C 82.261719 97.617188 104.808594 96.109375 105.359375 89.136719 C 105.359375 89.136719 104.265625 91.871094 93.195312 93.921875 C 80.625 96.246094 65.042969 95.972656 55.890625 94.46875 C 55.890625 94.46875 57.804688 96.109375 67.507812 96.65625 Z M 67.503906 96.660156 " fill-opacity="1" fill-rule="nonzero"/><g clip-path="url(#27d41a8fa3)"><path fill="#f58219" d="M 83.355469 15 C 83.355469 15 91.828125 23.617188 75.292969 36.613281 C 62.035156 47.144531 72.285156 53.164062 75.292969 60 C 67.5 53.023438 61.898438 46.871094 65.726562 41.125 C 71.328125 32.644531 86.773438 28.542969 83.355469 15 Z M 78.984375 54.257812 C 82.945312 58.769531 77.890625 62.875 77.890625 62.875 C 77.890625 62.875 88.003906 57.675781 83.355469 51.25 C 79.121094 45.09375 75.839844 42.082031 93.605469 31.828125 C 93.605469 31.828125 65.589844 38.804688 78.984375 54.261719 Z M 68.867188 127.707031 L 68.867188 114.300781 C 68.867188 110.882812 66.957031 108.558594 62.171875 108.558594 C 59.4375 108.558594 57.117188 109.242188 55.066406 110.058594 L 55.75 112.519531 C 57.25 111.972656 59.167969 111.425781 61.214844 111.425781 C 63.8125 111.425781 65.042969 112.519531 65.042969 114.710938 L 65.042969 116.488281 L 63.675781 116.488281 C 57.117188 116.488281 54.109375 118.949219 54.109375 122.917969 C 54.109375 126.199219 56.160156 128.113281 59.847656 128.113281 C 62.171875 128.113281 63.949219 127.019531 65.589844 125.652344 L 65.863281 127.703125 L 68.871094 127.703125 Z M 65.042969 123.328125 C 63.675781 124.5625 62.171875 125.246094 60.804688 125.246094 C 59.027344 125.246094 57.9375 124.148438 57.9375 122.234375 C 57.9375 120.320312 59.027344 118.953125 63.402344 118.953125 L 65.042969 118.953125 Z M 81.714844 127.707031 L 76.933594 127.707031 L 71.191406 108.96875 L 75.292969 108.96875 L 78.847656 120.457031 L 79.664062 123.875 C 81.441406 118.953125 82.808594 113.890625 83.355469 108.96875 L 87.457031 108.96875 C 86.363281 115.121094 84.449219 121.824219 81.714844 127.707031 Z M 103.855469 127.707031 L 103.855469 114.300781 C 103.855469 110.882812 101.941406 108.558594 97.15625 108.558594 C 94.425781 108.558594 92.101562 109.242188 90.050781 110.058594 L 90.597656 112.519531 C 92.238281 111.972656 94.152344 111.425781 96.203125 111.425781 C 98.796875 111.425781 100.027344 112.519531 100.027344 114.710938 L 100.027344 116.488281 L 98.660156 116.488281 C 92.101562 116.488281 89.09375 118.949219 89.09375 122.917969 C 89.09375 126.199219 91.007812 128.113281 94.699219 128.113281 C 97.160156 128.113281 98.933594 127.019531 100.574219 125.652344 L 100.847656 127.703125 L 103.855469 127.703125 Z M 100.027344 123.328125 C 98.660156 124.5625 97.160156 125.246094 95.792969 125.246094 C 94.015625 125.246094 92.921875 124.148438 92.921875 122.234375 C 92.921875 120.320312 94.015625 118.953125 98.386719 118.953125 L 100.027344 118.953125 Z M 49.875 130.851562 C 48.78125 132.496094 47.140625 133.726562 45.089844 134.410156 L 43.3125 132.222656 C 44.679688 131.402344 46.046875 130.171875 46.59375 129.074219 C 47.140625 128.117188 47.277344 126.75 47.277344 123.605469 L 47.277344 102.265625 L 51.375 102.265625 L 51.375 123.332031 C 51.375 127.570312 50.964844 129.210938 49.875 130.855469 Z M 49.875 130.851562 " fill-opacity="1" fill-rule="nonzero"/></g><g fill="#ffffff" fill-opacity="1"><g transform="translate(46.868305, 128.96032)"><g><path d="M 11.015625 -15.40625 L 11.015625 -4.921875 C 11.015625 -3.296875 10.554688 -2.039062 9.640625 -1.15625 C 8.734375 -0.28125 7.503906 0.15625 5.953125 0.15625 C 4.328125 0.15625 3.023438 -0.300781 2.046875 -1.21875 C 1.066406 -2.144531 0.578125 -3.457031 0.578125 -5.15625 L 4.296875 -5.15625 C 4.296875 -4.507812 4.425781 -4.019531 4.6875 -3.6875 C 4.957031 -3.363281 5.34375 -3.203125 5.84375 -3.203125 C 6.289062 -3.203125 6.640625 -3.347656 6.890625 -3.640625 C 7.140625 -3.929688 7.265625 -4.359375 7.265625 -4.921875 L 7.265625 -15.40625 Z M 11.015625 -15.40625 "/></g></g></g><g fill="#ffffff" fill-opacity="1"><g transform="translate(59.560856, 128.96032)"><g><path d="M 0.609375 -6.140625 C 0.609375 -7.398438 0.847656 -8.503906 1.328125 -9.453125 C 1.804688 -10.410156 2.453125 -11.144531 3.265625 -11.65625 C 4.085938 -12.164062 5.003906 -12.421875 6.015625 -12.421875 C 6.878906 -12.421875 7.632812 -12.242188 8.28125 -11.890625 C 8.9375 -11.546875 9.441406 -11.085938 9.796875 -10.515625 L 9.796875 -12.25 L 13.546875 -12.25 L 13.546875 0 L 9.796875 0 L 9.796875 -1.734375 C 9.429688 -1.160156 8.921875 -0.695312 8.265625 -0.34375 C 7.609375 0 6.851562 0.171875 6 0.171875 C 5 0.171875 4.085938 -0.0859375 3.265625 -0.609375 C 2.453125 -1.128906 1.804688 -1.867188 1.328125 -2.828125 C 0.847656 -3.785156 0.609375 -4.890625 0.609375 -6.140625 Z M 9.796875 -6.125 C 9.796875 -7.0625 9.535156 -7.800781 9.015625 -8.34375 C 8.492188 -8.882812 7.859375 -9.15625 7.109375 -9.15625 C 6.367188 -9.15625 5.738281 -8.882812 5.21875 -8.34375 C 4.695312 -7.8125 4.4375 -7.078125 4.4375 -6.140625 C 4.4375 -5.203125 4.695312 -4.457031 5.21875 -3.90625 C 5.738281 -3.363281 6.367188 -3.09375 7.109375 -3.09375 C 7.859375 -3.09375 8.492188 -3.363281 9.015625 -3.90625 C 9.535156 -4.445312 9.796875 -5.1875 9.796875 -6.125 Z M 9.796875 -6.125 "/></g></g></g><g fill="#ffffff" fill-opacity="1"><g transform="translate(74.471302, 128.96032)"><g><path d="M 6.875 -3.515625 L 9.53125 -12.25 L 13.515625 -12.25 L 9.171875 0 L 4.546875 0 L 0.203125 -12.25 L 4.21875 -12.25 Z M 6.875 -3.515625 "/></g></g></g><g fill="#ffffff" fill-opacity="1"><g transform="translate(88.217901, 128.96032)"><g><path d="M 0.609375 -6.140625 C 0.609375 -7.398438 0.847656 -8.503906 1.328125 -9.453125 C 1.804688 -10.410156 2.453125 -11.144531 3.265625 -11.65625 C 4.085938 -12.164062 5.003906 -12.421875 6.015625 -12.421875 C 6.878906 -12.421875 7.632812 -12.242188 8.28125 -11.890625 C 8.9375 -11.546875 9.441406 -11.085938 9.796875 -10.515625 L 9.796875 -12.25 L 13.546875 -12.25 L 13.546875 0 L 9.796875 0 L 9.796875 -1.734375 C 9.429688 -1.160156 8.921875 -0.695312 8.265625 -0.34375 C 7.609375 0 6.851562 0.171875 6 0.171875 C 5 0.171875 4.085938 -0.0859375 3.265625 -0.609375 C 2.453125 -1.128906 1.804688 -1.867188 1.328125 -2.828125 C 0.847656 -3.785156 0.609375 -4.890625 0.609375 -6.140625 Z M 9.796875 -6.125 C 9.796875 -7.0625 9.535156 -7.800781 9.015625 -8.34375 C 8.492188 -8.882812 7.859375 -9.15625 7.109375 -9.15625 C 6.367188 -9.15625 5.738281 -8.882812 5.21875 -8.34375 C 4.695312 -7.8125 4.4375 -7.078125 4.4375 -6.140625 C 4.4375 -5.203125 4.695312 -4.457031 5.21875 -3.90625 C 5.738281 -3.363281 6.367188 -3.09375 7.109375 -3.09375 C 7.859375 -3.09375 8.492188 -3.363281 9.015625 -3.90625 C 9.535156 -4.445312 9.796875 -5.1875 9.796875 -6.125 Z M 9.796875 -6.125 "/></g></g></g></svg>