<svg xmlns="http://www.w3.org/2000/svg" xmlns:xlink="http://www.w3.org/1999/xlink" width="200" zoomAndPan="magnify" viewBox="0 0 150 149.999998" height="200" preserveAspectRatio="xMidYMid meet" version="1.0"><defs><g/></defs><path fill="#ffe577" d="M 104.984375 24.367188 C 113.097656 33.074219 113.839844 77.351562 98.441406 85.707031 C 83.039062 94.066406 39.53125 94.421875 39.144531 69.707031 C 38.757812 44.992188 36.257812 23.65625 59.359375 21.699219 C 82.460938 19.742188 96.707031 15.472656 104.984375 24.367188 Z M 104.984375 24.367188 " fill-opacity="1" fill-rule="nonzero"/><path fill="#000000" d="M 108.140625 89.644531 L 42.898438 89.644531 C 42.113281 89.644531 41.480469 89.011719 41.480469 88.230469 L 41.480469 23.1875 C 41.480469 22.40625 42.113281 21.773438 42.898438 21.773438 L 108.140625 21.773438 C 108.925781 21.773438 109.5625 22.40625 109.5625 23.1875 L 109.5625 88.230469 C 109.5625 89.011719 108.925781 89.644531 108.140625 89.644531 Z M 44.316406 86.816406 L 106.722656 86.816406 L 106.722656 24.601562 L 44.316406 24.601562 Z M 69.242188 84.632812 C 66.90625 84.632812 64.746094 84.078125 62.917969 82.988281 C 61.203125 81.957031 59.765625 80.332031 58.773438 78.277344 C 58.453125 77.625 58.683594 76.839844 59.304688 76.457031 L 64.265625 73.410156 C 64.492188 73.273438 64.746094 73.199219 65.007812 73.199219 C 65.859375 73.199219 66.234375 73.84375 66.460938 74.226562 C 67.132812 75.347656 67.507812 75.828125 68.230469 76.1875 C 68.242188 76.15625 68.625 76.28125 69.101562 76.28125 C 69.652344 76.28125 70.304688 76.148438 70.589844 75.550781 C 70.882812 74.933594 70.855469 72.539062 70.839844 70.789062 L 70.824219 68.8125 L 70.851562 53.082031 C 70.851562 52.300781 71.484375 51.667969 72.269531 51.667969 L 78.378906 51.667969 C 78.773438 51.667969 79.148438 51.832031 79.417969 52.121094 C 79.6875 52.410156 79.824219 52.792969 79.792969 53.183594 L 79.792969 58.839844 C 79.800781 62.5625 79.804688 66.277344 79.785156 69.988281 L 79.804688 71.445312 C 79.851562 74.429688 79.898438 77.246094 78.53125 79.726562 C 77.496094 81.839844 75.433594 83.460938 72.757812 84.230469 C 71.558594 84.5 70.378906 84.632812 69.242188 84.632812 Z M 61.949219 78.15625 C 62.621094 79.1875 63.445312 80.007812 64.375 80.5625 C 66.429688 81.785156 69.226562 82.128906 72.054688 81.496094 C 73.3125 81.128906 75.101562 80.277344 76.011719 78.429688 C 77.046875 76.546875 77.007812 74.207031 76.964844 71.496094 L 76.945312 69.988281 C 76.96875 66.269531 76.960938 62.5625 76.953125 58.847656 L 76.945312 54.5 L 73.679688 54.5 L 73.65625 68.816406 L 73.671875 70.761719 C 73.703125 74.0625 73.691406 75.832031 73.089844 76.875 C 72.011719 79.117188 69.335938 79.488281 67.179688 78.816406 C 65.847656 78.175781 65.125 77.390625 64.558594 76.554688 Z M 65.007812 74.765625 L 63.90625 75.480469 Z M 65.070312 74.722656 L 65.09375 74.707031 Z M 92.695312 84.347656 C 88.875 84.347656 85.066406 83.023438 82.785156 80.726562 L 82.183594 80.042969 C 81.460938 79.234375 80.839844 78.535156 80.292969 77.289062 C 80 76.628906 80.257812 75.855469 80.882812 75.496094 L 85.859375 72.648438 C 86.515625 72.277344 87.335938 72.472656 87.75 73.09375 C 89.019531 75.011719 89.964844 75.742188 91.648438 76.113281 C 93.078125 76.28125 94.472656 76.007812 95.046875 75.390625 C 95.152344 75.269531 95.480469 74.917969 95.304688 74.003906 C 95.042969 73.175781 93.191406 72.398438 91.402344 71.648438 C 89.667969 70.921875 87.699219 70.09375 86.003906 68.832031 C 83.90625 67.421875 82.457031 64.964844 82.097656 62.132812 C 81.742188 59.316406 82.519531 56.589844 84.246094 54.644531 C 85.425781 53.191406 87.398438 52.023438 89.621094 51.484375 L 91.695312 51.214844 C 95.75 51.113281 98.554688 52.152344 100.632812 54.476562 C 101.199219 55.027344 101.648438 55.664062 102.363281 56.773438 C 102.566406 57.089844 102.636719 57.480469 102.554688 57.847656 C 102.472656 58.214844 102.242188 58.535156 101.917969 58.734375 C 99.96875 59.945312 99.96875 59.945312 97.171875 61.765625 C 96.828125 61.988281 96.402344 62.054688 96.007812 61.941406 C 95.617188 61.828125 95.285156 61.554688 95.113281 61.183594 C 94.707031 60.324219 94.070312 59.722656 93.324219 59.492188 C 92.703125 59.304688 91.957031 59.363281 91.480469 59.632812 C 91.140625 59.832031 91.046875 60.082031 91.003906 60.25 C 90.941406 60.472656 90.890625 60.644531 91.117188 61.464844 C 91.355469 61.96875 92.695312 62.542969 93.988281 63.097656 C 94.40625 63.277344 94.828125 63.457031 95.238281 63.648438 C 100.796875 65.894531 103.582031 68.632812 104.199219 72.492188 C 104.230469 72.675781 104.222656 72.859375 104.183594 73.03125 C 104.425781 75.128906 104.078125 76.65625 103.828125 77.421875 C 102.890625 80.625 100.273438 82.925781 96.46875 83.886719 C 95.246094 84.199219 93.96875 84.347656 92.695312 84.347656 Z M 83.523438 77.246094 C 83.742188 77.539062 83.992188 77.816406 84.300781 78.167969 L 84.867188 78.8125 C 87.144531 81.101562 91.859375 82.140625 95.769531 81.152344 C 97.386719 80.746094 100.226562 79.609375 101.105469 76.613281 C 101.285156 76.070312 101.613281 74.726562 101.273438 72.785156 C 101.246094 72.628906 101.242188 72.476562 101.269531 72.324219 C 100.800781 70.480469 99.367188 68.375 94.101562 66.246094 C 93.648438 66.035156 93.253906 65.867188 92.863281 65.699219 C 91.066406 64.929688 89.203125 64.128906 88.449219 62.410156 C 88.105469 61.230469 87.988281 60.429688 88.265625 59.527344 C 88.488281 58.578125 89.113281 57.738281 90.058594 57.191406 C 91.214844 56.515625 92.742188 56.363281 94.148438 56.789062 C 95.195312 57.113281 96.109375 57.742188 96.820312 58.617188 C 97.960938 57.875 98.453125 57.554688 99.167969 57.113281 C 98.953125 56.824219 98.777344 56.625 98.578125 56.429688 C 96.984375 54.660156 95.023438 53.953125 91.898438 54.035156 L 90.128906 54.261719 C 88.679688 54.625 87.230469 55.460938 86.40625 56.476562 C 85.183594 57.855469 84.652344 59.773438 84.90625 61.777344 C 85.160156 63.773438 86.1875 65.550781 87.640625 66.53125 C 89.117188 67.625 90.835938 68.351562 92.496094 69.046875 C 95.054688 70.117188 97.46875 71.132812 98.050781 73.316406 C 98.058594 73.339844 98.0625 73.367188 98.070312 73.390625 C 98.472656 75.355469 97.777344 76.609375 97.125 77.3125 C 95.894531 78.636719 93.71875 79.214844 91.160156 78.902344 C 88.785156 78.382812 87.355469 77.273438 86.15625 75.742188 Z M 83.523438 77.246094 " fill-opacity="1" fill-rule="nonzero"/><g fill="#1a1a1a" fill-opacity="1"><g transform="translate(8.21967, 128.429023)"><g><path d="M 12 -16.765625 L 12 -5.34375 C 12 -3.582031 11.5 -2.222656 10.5 -1.265625 C 9.5 -0.304688 8.15625 0.171875 6.46875 0.171875 C 4.707031 0.171875 3.289062 -0.328125 2.21875 -1.328125 C 1.15625 -2.335938 0.625 -3.765625 0.625 -5.609375 L 4.6875 -5.609375 C 4.6875 -4.910156 4.828125 -4.378906 5.109375 -4.015625 C 5.398438 -3.660156 5.816406 -3.484375 6.359375 -3.484375 C 6.847656 -3.484375 7.226562 -3.640625 7.5 -3.953125 C 7.769531 -4.273438 7.90625 -4.738281 7.90625 -5.34375 L 7.90625 -16.765625 Z M 12 -16.765625 "/></g></g></g><g fill="#1a1a1a" fill-opacity="1"><g transform="translate(22.02872, 128.429023)"><g><path d="M 0.671875 -6.6875 C 0.671875 -8.0625 0.925781 -9.265625 1.4375 -10.296875 C 1.957031 -11.328125 2.660156 -12.117188 3.546875 -12.671875 C 4.441406 -13.234375 5.441406 -13.515625 6.546875 -13.515625 C 7.484375 -13.515625 8.304688 -13.320312 9.015625 -12.9375 C 9.722656 -12.5625 10.269531 -12.0625 10.65625 -11.4375 L 10.65625 -13.328125 L 14.734375 -13.328125 L 14.734375 0 L 10.65625 0 L 10.65625 -1.890625 C 10.257812 -1.265625 9.707031 -0.757812 9 -0.375 C 8.289062 0 7.460938 0.1875 6.515625 0.1875 C 5.429688 0.1875 4.441406 -0.09375 3.546875 -0.65625 C 2.660156 -1.21875 1.957031 -2.019531 1.4375 -3.0625 C 0.925781 -4.113281 0.671875 -5.320312 0.671875 -6.6875 Z M 10.65625 -6.671875 C 10.65625 -7.679688 10.367188 -8.484375 9.796875 -9.078125 C 9.234375 -9.671875 8.546875 -9.96875 7.734375 -9.96875 C 6.921875 -9.96875 6.234375 -9.675781 5.671875 -9.09375 C 5.109375 -8.507812 4.828125 -7.707031 4.828125 -6.6875 C 4.828125 -5.664062 5.109375 -4.859375 5.671875 -4.265625 C 6.234375 -3.671875 6.921875 -3.375 7.734375 -3.375 C 8.546875 -3.375 9.234375 -3.664062 9.796875 -4.25 C 10.367188 -4.84375 10.65625 -5.648438 10.65625 -6.671875 Z M 10.65625 -6.671875 "/></g></g></g><g fill="#1a1a1a" fill-opacity="1"><g transform="translate(38.250763, 128.429023)"><g><path d="M 7.484375 -3.828125 L 10.375 -13.328125 L 14.71875 -13.328125 L 9.984375 0 L 4.953125 0 L 0.21875 -13.328125 L 4.59375 -13.328125 Z M 7.484375 -3.828125 "/></g></g></g><g fill="#1a1a1a" fill-opacity="1"><g transform="translate(53.20658, 128.429023)"><g><path d="M 0.671875 -6.6875 C 0.671875 -8.0625 0.925781 -9.265625 1.4375 -10.296875 C 1.957031 -11.328125 2.660156 -12.117188 3.546875 -12.671875 C 4.441406 -13.234375 5.441406 -13.515625 6.546875 -13.515625 C 7.484375 -13.515625 8.304688 -13.320312 9.015625 -12.9375 C 9.722656 -12.5625 10.269531 -12.0625 10.65625 -11.4375 L 10.65625 -13.328125 L 14.734375 -13.328125 L 14.734375 0 L 10.65625 0 L 10.65625 -1.890625 C 10.257812 -1.265625 9.707031 -0.757812 9 -0.375 C 8.289062 0 7.460938 0.1875 6.515625 0.1875 C 5.429688 0.1875 4.441406 -0.09375 3.546875 -0.65625 C 2.660156 -1.21875 1.957031 -2.019531 1.4375 -3.0625 C 0.925781 -4.113281 0.671875 -5.320312 0.671875 -6.6875 Z M 10.65625 -6.671875 C 10.65625 -7.679688 10.367188 -8.484375 9.796875 -9.078125 C 9.234375 -9.671875 8.546875 -9.96875 7.734375 -9.96875 C 6.921875 -9.96875 6.234375 -9.675781 5.671875 -9.09375 C 5.109375 -8.507812 4.828125 -7.707031 4.828125 -6.6875 C 4.828125 -5.664062 5.109375 -4.859375 5.671875 -4.265625 C 6.234375 -3.671875 6.921875 -3.375 7.734375 -3.375 C 8.546875 -3.375 9.234375 -3.664062 9.796875 -4.25 C 10.367188 -4.84375 10.65625 -5.648438 10.65625 -6.671875 Z M 10.65625 -6.671875 "/></g></g></g><g fill="#1a1a1a" fill-opacity="1"><g transform="translate(69.428623, 128.429023)"><g><path d="M 7.546875 0.171875 C 6.316406 0.171875 5.21875 -0.0234375 4.25 -0.421875 C 3.28125 -0.828125 2.503906 -1.421875 1.921875 -2.203125 C 1.335938 -2.984375 1.03125 -3.921875 1 -5.015625 L 5.34375 -5.015625 C 5.414062 -4.390625 5.632812 -3.914062 6 -3.59375 C 6.363281 -3.269531 6.84375 -3.109375 7.4375 -3.109375 C 8.039062 -3.109375 8.515625 -3.242188 8.859375 -3.515625 C 9.210938 -3.796875 9.390625 -4.1875 9.390625 -4.6875 C 9.390625 -5.09375 9.25 -5.429688 8.96875 -5.703125 C 8.6875 -5.972656 8.34375 -6.195312 7.9375 -6.375 C 7.53125 -6.550781 6.957031 -6.75 6.21875 -6.96875 C 5.132812 -7.3125 4.25 -7.648438 3.5625 -7.984375 C 2.875 -8.316406 2.28125 -8.804688 1.78125 -9.453125 C 1.289062 -10.109375 1.046875 -10.960938 1.046875 -12.015625 C 1.046875 -13.578125 1.609375 -14.800781 2.734375 -15.6875 C 3.867188 -16.570312 5.347656 -17.015625 7.171875 -17.015625 C 9.015625 -17.015625 10.5 -16.570312 11.625 -15.6875 C 12.757812 -14.800781 13.367188 -13.570312 13.453125 -12 L 9.03125 -12 C 9 -12.539062 8.800781 -12.960938 8.4375 -13.265625 C 8.070312 -13.578125 7.601562 -13.734375 7.03125 -13.734375 C 6.53125 -13.734375 6.128906 -13.601562 5.828125 -13.34375 C 5.523438 -13.082031 5.375 -12.703125 5.375 -12.203125 C 5.375 -11.660156 5.628906 -11.238281 6.140625 -10.9375 C 6.648438 -10.632812 7.445312 -10.3125 8.53125 -9.96875 C 9.613281 -9.59375 10.492188 -9.238281 11.171875 -8.90625 C 11.847656 -8.570312 12.429688 -8.085938 12.921875 -7.453125 C 13.421875 -6.816406 13.671875 -6 13.671875 -5 C 13.671875 -4.039062 13.425781 -3.171875 12.9375 -2.390625 C 12.445312 -1.609375 11.738281 -0.984375 10.8125 -0.515625 C 9.894531 -0.0546875 8.804688 0.171875 7.546875 0.171875 Z M 7.546875 0.171875 "/></g></g></g><g fill="#1a1a1a" fill-opacity="1"><g transform="translate(84.121636, 128.429023)"><g><path d="M 0.671875 -6.671875 C 0.671875 -8.054688 0.953125 -9.265625 1.515625 -10.296875 C 2.078125 -11.328125 2.863281 -12.117188 3.875 -12.671875 C 4.894531 -13.234375 6.054688 -13.515625 7.359375 -13.515625 C 9.023438 -13.515625 10.421875 -13.078125 11.546875 -12.203125 C 12.671875 -11.328125 13.410156 -10.09375 13.765625 -8.5 L 9.40625 -8.5 C 9.039062 -9.519531 8.332031 -10.03125 7.28125 -10.03125 C 6.53125 -10.03125 5.929688 -9.738281 5.484375 -9.15625 C 5.046875 -8.582031 4.828125 -7.753906 4.828125 -6.671875 C 4.828125 -5.585938 5.046875 -4.753906 5.484375 -4.171875 C 5.929688 -3.585938 6.53125 -3.296875 7.28125 -3.296875 C 8.332031 -3.296875 9.039062 -3.804688 9.40625 -4.828125 L 13.765625 -4.828125 C 13.410156 -3.265625 12.664062 -2.035156 11.53125 -1.140625 C 10.40625 -0.253906 9.015625 0.1875 7.359375 0.1875 C 6.054688 0.1875 4.894531 -0.0859375 3.875 -0.640625 C 2.863281 -1.203125 2.078125 -2 1.515625 -3.03125 C 0.953125 -4.070312 0.671875 -5.285156 0.671875 -6.671875 Z M 0.671875 -6.671875 "/></g></g></g><g fill="#1a1a1a" fill-opacity="1"><g transform="translate(98.575743, 128.429023)"><g><path d="M 5.5625 -11.109375 C 6.039062 -11.835938 6.640625 -12.410156 7.359375 -12.828125 C 8.078125 -13.253906 8.875 -13.46875 9.75 -13.46875 L 9.75 -9.15625 L 8.625 -9.15625 C 7.601562 -9.15625 6.835938 -8.9375 6.328125 -8.5 C 5.816406 -8.0625 5.5625 -7.289062 5.5625 -6.1875 L 5.5625 0 L 1.484375 0 L 1.484375 -13.328125 L 5.5625 -13.328125 Z M 5.5625 -11.109375 "/></g></g></g><g fill="#1a1a1a" fill-opacity="1"><g transform="translate(108.801127, 128.429023)"><g><path d="M 3.53125 -14.71875 C 2.8125 -14.71875 2.222656 -14.925781 1.765625 -15.34375 C 1.316406 -15.769531 1.09375 -16.296875 1.09375 -16.921875 C 1.09375 -17.554688 1.316406 -18.082031 1.765625 -18.5 C 2.222656 -18.925781 2.8125 -19.140625 3.53125 -19.140625 C 4.238281 -19.140625 4.816406 -18.925781 5.265625 -18.5 C 5.722656 -18.082031 5.953125 -17.554688 5.953125 -16.921875 C 5.953125 -16.296875 5.722656 -15.769531 5.265625 -15.34375 C 4.816406 -14.925781 4.238281 -14.71875 3.53125 -14.71875 Z M 5.5625 -13.328125 L 5.5625 0 L 1.484375 0 L 1.484375 -13.328125 Z M 5.5625 -13.328125 "/></g></g></g><g fill="#1a1a1a" fill-opacity="1"><g transform="translate(115.848993, 128.429023)"><g><path d="M 5.5625 -11.4375 C 5.957031 -12.0625 6.503906 -12.5625 7.203125 -12.9375 C 7.910156 -13.320312 8.734375 -13.515625 9.671875 -13.515625 C 10.773438 -13.515625 11.769531 -13.234375 12.65625 -12.671875 C 13.550781 -12.117188 14.253906 -11.328125 14.765625 -10.296875 C 15.285156 -9.265625 15.546875 -8.0625 15.546875 -6.6875 C 15.546875 -5.320312 15.285156 -4.113281 14.765625 -3.0625 C 14.253906 -2.019531 13.550781 -1.21875 12.65625 -0.65625 C 11.769531 -0.09375 10.773438 0.1875 9.671875 0.1875 C 8.753906 0.1875 7.9375 0 7.21875 -0.375 C 6.507812 -0.757812 5.957031 -1.253906 5.5625 -1.859375 L 5.5625 6.359375 L 1.484375 6.359375 L 1.484375 -13.328125 L 5.5625 -13.328125 Z M 11.390625 -6.6875 C 11.390625 -7.707031 11.109375 -8.507812 10.546875 -9.09375 C 9.984375 -9.675781 9.285156 -9.96875 8.453125 -9.96875 C 7.640625 -9.96875 6.953125 -9.671875 6.390625 -9.078125 C 5.828125 -8.484375 5.546875 -7.679688 5.546875 -6.671875 C 5.546875 -5.648438 5.828125 -4.84375 6.390625 -4.25 C 6.953125 -3.664062 7.640625 -3.375 8.453125 -3.375 C 9.265625 -3.375 9.957031 -3.671875 10.53125 -4.265625 C 11.101562 -4.859375 11.390625 -5.664062 11.390625 -6.6875 Z M 11.390625 -6.6875 "/></g></g></g><g fill="#1a1a1a" fill-opacity="1"><g transform="translate(132.071036, 128.429023)"><g><path d="M 8.90625 -3.46875 L 8.90625 0 L 6.828125 0 C 5.347656 0 4.191406 -0.359375 3.359375 -1.078125 C 2.535156 -1.804688 2.125 -2.992188 2.125 -4.640625 L 2.125 -9.9375 L 0.5 -9.9375 L 0.5 -13.328125 L 2.125 -13.328125 L 2.125 -16.578125 L 6.21875 -16.578125 L 6.21875 -13.328125 L 8.890625 -13.328125 L 8.890625 -9.9375 L 6.21875 -9.9375 L 6.21875 -4.59375 C 6.21875 -4.1875 6.3125 -3.894531 6.5 -3.71875 C 6.6875 -3.550781 7.003906 -3.46875 7.453125 -3.46875 Z M 8.90625 -3.46875 "/></g></g></g></svg>