<svg xmlns="http://www.w3.org/2000/svg" xmlns:xlink="http://www.w3.org/1999/xlink" width="300" zoomAndPan="magnify" viewBox="0 0 224.87999 74.999997" height="100" preserveAspectRatio="xMidYMid meet" version="1.0"><defs><g/><clipPath id="afa1a41ea1"><path d="M 57.304688 34.855469 L 167.574219 34.855469 L 167.574219 43.808594 L 57.304688 43.808594 Z M 57.304688 34.855469 " clip-rule="nonzero"/></clipPath></defs><g fill="#20c997" fill-opacity="1"><g transform="translate(13.205647, 46.195342)"><g><path d="M 0.203125 -2.203125 L 0.3125 -2.203125 C 0.3125 -2.203125 0.378906 -2.160156 0.515625 -2.078125 C 0.648438 -1.992188 0.820312 -1.953125 1.03125 -1.953125 C 1.4375 -1.953125 1.742188 -2.085938 1.953125 -2.359375 C 2.171875 -2.640625 2.320312 -3.003906 2.40625 -3.453125 C 2.488281 -3.898438 2.53125 -4.375 2.53125 -4.875 L 2.53125 -20.59375 C 2.53125 -21.363281 2.425781 -21.96875 2.21875 -22.40625 C 2.019531 -22.851562 1.675781 -23.140625 1.1875 -23.265625 L 1.1875 -23.484375 L 10.46875 -23.484375 L 10.46875 -23.265625 C 9.976562 -23.140625 9.628906 -22.851562 9.421875 -22.40625 C 9.222656 -21.96875 9.125 -21.363281 9.125 -20.59375 L 9.125 -5.484375 C 9.125 -4.378906 8.921875 -3.382812 8.515625 -2.5 C 8.117188 -1.613281 7.523438 -0.910156 6.734375 -0.390625 C 5.941406 0.128906 4.945312 0.390625 3.75 0.390625 C 3.175781 0.390625 2.613281 0.289062 2.0625 0.09375 C 1.519531 -0.09375 1.070312 -0.378906 0.71875 -0.765625 C 0.375 -1.148438 0.203125 -1.628906 0.203125 -2.203125 Z M 0.203125 -2.203125 "/></g></g></g><g fill="#20c997" fill-opacity="1"><g transform="translate(23.5643, 46.195342)"><g><path d="M 0.515625 -23.484375 L 9.78125 -23.484375 L 9.78125 -23.265625 C 9.300781 -23.140625 8.957031 -22.851562 8.75 -22.40625 C 8.539062 -21.96875 8.4375 -21.363281 8.4375 -20.59375 L 8.4375 -3.5 C 8.4375 -3.195312 8.441406 -2.859375 8.453125 -2.484375 C 8.472656 -2.117188 8.523438 -1.757812 8.609375 -1.40625 C 8.703125 -1.0625 8.859375 -0.773438 9.078125 -0.546875 C 9.296875 -0.316406 9.613281 -0.203125 10.03125 -0.203125 C 10.46875 -0.203125 10.800781 -0.304688 11.03125 -0.515625 C 11.257812 -0.734375 11.414062 -1.015625 11.5 -1.359375 C 11.59375 -1.703125 11.640625 -2.0625 11.640625 -2.4375 C 11.648438 -2.8125 11.65625 -3.164062 11.65625 -3.5 L 11.65625 -20.59375 C 11.65625 -21.363281 11.550781 -21.96875 11.34375 -22.40625 C 11.132812 -22.851562 10.789062 -23.140625 10.3125 -23.265625 L 10.3125 -23.484375 L 19.578125 -23.484375 L 19.578125 -23.265625 C 19.097656 -23.140625 18.753906 -22.851562 18.546875 -22.40625 C 18.347656 -21.96875 18.25 -21.363281 18.25 -20.59375 L 18.25 -7.453125 C 18.25 -5.804688 17.96875 -4.398438 17.40625 -3.234375 C 16.851562 -2.066406 15.972656 -1.171875 14.765625 -0.546875 C 13.566406 0.078125 11.992188 0.390625 10.046875 0.390625 C 8.109375 0.390625 6.535156 0.078125 5.328125 -0.546875 C 4.117188 -1.171875 3.238281 -2.066406 2.6875 -3.234375 C 2.132812 -4.398438 1.859375 -5.804688 1.859375 -7.453125 L 1.859375 -20.59375 C 1.859375 -21.363281 1.753906 -21.96875 1.546875 -22.40625 C 1.335938 -22.851562 0.992188 -23.140625 0.515625 -23.265625 Z M 0.515625 -23.484375 "/></g></g></g><g fill="#20c997" fill-opacity="1"><g transform="translate(43.045989, 46.195342)"><g><path d="M 0.515625 -23.484375 L 9.78125 -23.484375 L 9.78125 -23.265625 C 9.300781 -23.140625 8.957031 -22.851562 8.75 -22.40625 C 8.539062 -21.96875 8.4375 -21.363281 8.4375 -20.59375 L 8.4375 -0.40625 L 9.640625 -0.40625 C 10.453125 -0.40625 11.210938 -0.5625 11.921875 -0.875 C 12.640625 -1.195312 13.285156 -1.609375 13.859375 -2.109375 C 14.429688 -2.609375 14.929688 -3.160156 15.359375 -3.765625 C 15.785156 -4.367188 16.113281 -4.957031 16.34375 -5.53125 C 16.570312 -6.113281 16.6875 -6.628906 16.6875 -7.078125 L 16.890625 -7.078125 L 16.890625 0 L 0.515625 0 L 0.515625 -0.203125 C 0.992188 -0.328125 1.335938 -0.613281 1.546875 -1.0625 C 1.753906 -1.519531 1.859375 -2.128906 1.859375 -2.890625 L 1.859375 -20.59375 C 1.859375 -21.363281 1.753906 -21.96875 1.546875 -22.40625 C 1.335938 -22.851562 0.992188 -23.140625 0.515625 -23.265625 Z M 0.515625 -23.484375 "/></g></g></g><g fill="#20c997" fill-opacity="1"><g transform="translate(59.829906, 46.195342)"><g><path d="M 0.515625 0 L 0.515625 -0.203125 C 0.992188 -0.328125 1.335938 -0.613281 1.546875 -1.0625 C 1.753906 -1.519531 1.859375 -2.128906 1.859375 -2.890625 L 1.859375 -20.59375 C 1.859375 -21.363281 1.753906 -21.96875 1.546875 -22.40625 C 1.335938 -22.851562 0.992188 -23.140625 0.515625 -23.265625 L 0.515625 -23.484375 L 9.78125 -23.484375 L 9.78125 -23.265625 C 9.300781 -23.140625 8.957031 -22.851562 8.75 -22.40625 C 8.539062 -21.96875 8.4375 -21.363281 8.4375 -20.59375 L 8.4375 -2.890625 C 8.4375 -2.128906 8.539062 -1.519531 8.75 -1.0625 C 8.957031 -0.613281 9.300781 -0.328125 9.78125 -0.203125 L 9.78125 0 Z M 0.515625 0 "/></g></g></g><g fill="#20c997" fill-opacity="1"><g transform="translate(69.508976, 46.195342)"><g><path d="M 0 0 L 0 -0.203125 C 0.257812 -0.203125 0.507812 -0.382812 0.75 -0.75 C 0.988281 -1.125 1.210938 -1.597656 1.421875 -2.171875 C 1.640625 -2.753906 1.835938 -3.367188 2.015625 -4.015625 C 2.191406 -4.660156 2.347656 -5.257812 2.484375 -5.8125 C 2.847656 -7.195312 3.175781 -8.472656 3.46875 -9.640625 C 3.757812 -10.816406 4.039062 -11.941406 4.3125 -13.015625 C 4.582031 -14.097656 4.847656 -15.175781 5.109375 -16.25 C 5.378906 -17.332031 5.664062 -18.460938 5.96875 -19.640625 C 6.269531 -20.828125 6.59375 -22.109375 6.9375 -23.484375 L 13.75 -23.484375 C 14.113281 -22.109375 14.441406 -20.828125 14.734375 -19.640625 C 15.023438 -18.460938 15.304688 -17.332031 15.578125 -16.25 C 15.859375 -15.175781 16.132812 -14.097656 16.40625 -13.015625 C 16.6875 -11.941406 16.96875 -10.816406 17.25 -9.640625 C 17.539062 -8.472656 17.859375 -7.195312 18.203125 -5.8125 C 18.335938 -5.257812 18.492188 -4.660156 18.671875 -4.015625 C 18.859375 -3.367188 19.054688 -2.753906 19.265625 -2.171875 C 19.472656 -1.597656 19.695312 -1.125 19.9375 -0.75 C 20.1875 -0.382812 20.441406 -0.203125 20.703125 -0.203125 L 20.703125 0 L 10.359375 0 L 10.359375 -0.203125 C 10.867188 -0.585938 11.191406 -1.144531 11.328125 -1.875 C 11.472656 -2.601562 11.507812 -3.429688 11.4375 -4.359375 C 11.363281 -5.285156 11.222656 -6.226562 11.015625 -7.1875 L 5.203125 -7.1875 C 5.347656 -5.59375 5.671875 -4.203125 6.171875 -3.015625 C 6.671875 -1.835938 7.398438 -0.898438 8.359375 -0.203125 L 8.359375 0 Z M 7.125 -22.78125 C 6.4375 -19.769531 5.910156 -16.988281 5.546875 -14.4375 C 5.179688 -11.882812 5.0625 -9.601562 5.1875 -7.59375 L 10.9375 -7.59375 C 10.8125 -8.132812 10.679688 -8.660156 10.546875 -9.171875 C 10.421875 -9.691406 10.300781 -10.179688 10.1875 -10.640625 C 9.945312 -11.609375 9.726562 -12.46875 9.53125 -13.21875 C 9.34375 -13.976562 9.160156 -14.695312 8.984375 -15.375 C 8.816406 -16.050781 8.644531 -16.742188 8.46875 -17.453125 C 8.289062 -18.171875 8.09375 -18.957031 7.875 -19.8125 C 7.664062 -20.664062 7.414062 -21.65625 7.125 -22.78125 Z M 7.125 -22.78125 "/></g></g></g><g fill="#20c997" fill-opacity="1"><g transform="translate(89.587889, 46.195342)"><g/></g></g><g fill="#20c997" fill-opacity="1"><g transform="translate(95.601269, 46.195342)"><g><path d="M 9.78125 0 L 0.515625 0 L 0.515625 -0.203125 C 0.992188 -0.328125 1.335938 -0.613281 1.546875 -1.0625 C 1.753906 -1.519531 1.859375 -2.128906 1.859375 -2.890625 L 1.859375 -20.59375 C 1.859375 -21.363281 1.753906 -21.96875 1.546875 -22.40625 C 1.335938 -22.851562 0.992188 -23.140625 0.515625 -23.265625 L 0.515625 -23.484375 L 12.5625 -23.484375 C 13.894531 -23.484375 15.09375 -23.179688 16.15625 -22.578125 C 17.21875 -21.972656 18.0625 -21.125 18.6875 -20.03125 C 19.3125 -18.9375 19.625 -17.660156 19.625 -16.203125 C 19.625 -14.515625 19.28125 -13.101562 18.59375 -11.96875 C 17.90625 -10.84375 16.957031 -9.992188 15.75 -9.421875 C 14.539062 -8.847656 13.148438 -8.5625 11.578125 -8.5625 L 8.4375 -8.5625 L 8.4375 -2.890625 C 8.4375 -2.128906 8.539062 -1.519531 8.75 -1.0625 C 8.957031 -0.613281 9.300781 -0.328125 9.78125 -0.203125 Z M 8.4375 -23.078125 L 8.4375 -9.078125 L 8.828125 -9.078125 C 9.628906 -9.078125 10.285156 -9.257812 10.796875 -9.625 C 11.316406 -10 11.722656 -10.515625 12.015625 -11.171875 C 12.304688 -11.835938 12.507812 -12.601562 12.625 -13.46875 C 12.75 -14.332031 12.8125 -15.253906 12.8125 -16.234375 C 12.8125 -17.097656 12.75 -17.929688 12.625 -18.734375 C 12.5 -19.535156 12.273438 -20.253906 11.953125 -20.890625 C 11.628906 -21.523438 11.1875 -22.039062 10.625 -22.4375 C 10.0625 -22.832031 9.332031 -23.046875 8.4375 -23.078125 Z M 8.4375 -23.078125 "/></g></g></g><g fill="#20c997" fill-opacity="1"><g transform="translate(115.536027, 46.195342)"><g><path d="M 0 0 L 0 -0.203125 C 0.257812 -0.203125 0.507812 -0.382812 0.75 -0.75 C 0.988281 -1.125 1.210938 -1.597656 1.421875 -2.171875 C 1.640625 -2.753906 1.835938 -3.367188 2.015625 -4.015625 C 2.191406 -4.660156 2.347656 -5.257812 2.484375 -5.8125 C 2.847656 -7.195312 3.175781 -8.472656 3.46875 -9.640625 C 3.757812 -10.816406 4.039062 -11.941406 4.3125 -13.015625 C 4.582031 -14.097656 4.847656 -15.175781 5.109375 -16.25 C 5.378906 -17.332031 5.664062 -18.460938 5.96875 -19.640625 C 6.269531 -20.828125 6.59375 -22.109375 6.9375 -23.484375 L 13.75 -23.484375 C 14.113281 -22.109375 14.441406 -20.828125 14.734375 -19.640625 C 15.023438 -18.460938 15.304688 -17.332031 15.578125 -16.25 C 15.859375 -15.175781 16.132812 -14.097656 16.40625 -13.015625 C 16.6875 -11.941406 16.96875 -10.816406 17.25 -9.640625 C 17.539062 -8.472656 17.859375 -7.195312 18.203125 -5.8125 C 18.335938 -5.257812 18.492188 -4.660156 18.671875 -4.015625 C 18.859375 -3.367188 19.054688 -2.753906 19.265625 -2.171875 C 19.472656 -1.597656 19.695312 -1.125 19.9375 -0.75 C 20.1875 -0.382812 20.441406 -0.203125 20.703125 -0.203125 L 20.703125 0 L 10.359375 0 L 10.359375 -0.203125 C 10.867188 -0.585938 11.191406 -1.144531 11.328125 -1.875 C 11.472656 -2.601562 11.507812 -3.429688 11.4375 -4.359375 C 11.363281 -5.285156 11.222656 -6.226562 11.015625 -7.1875 L 5.203125 -7.1875 C 5.347656 -5.59375 5.671875 -4.203125 6.171875 -3.015625 C 6.671875 -1.835938 7.398438 -0.898438 8.359375 -0.203125 L 8.359375 0 Z M 7.125 -22.78125 C 6.4375 -19.769531 5.910156 -16.988281 5.546875 -14.4375 C 5.179688 -11.882812 5.0625 -9.601562 5.1875 -7.59375 L 10.9375 -7.59375 C 10.8125 -8.132812 10.679688 -8.660156 10.546875 -9.171875 C 10.421875 -9.691406 10.300781 -10.179688 10.1875 -10.640625 C 9.945312 -11.609375 9.726562 -12.46875 9.53125 -13.21875 C 9.34375 -13.976562 9.160156 -14.695312 8.984375 -15.375 C 8.816406 -16.050781 8.644531 -16.742188 8.46875 -17.453125 C 8.289062 -18.171875 8.09375 -18.957031 7.875 -19.8125 C 7.664062 -20.664062 7.414062 -21.65625 7.125 -22.78125 Z M 7.125 -22.78125 "/></g></g></g><g fill="#20c997" fill-opacity="1"><g transform="translate(135.614947, 46.195342)"><g><path d="M 0.515625 -23.265625 L 0.515625 -23.484375 L 12.390625 -23.484375 C 13.796875 -23.484375 14.960938 -23.238281 15.890625 -22.75 C 16.828125 -22.257812 17.53125 -21.609375 18 -20.796875 C 18.46875 -19.984375 18.703125 -19.09375 18.703125 -18.125 C 18.703125 -17.101562 18.507812 -16.253906 18.125 -15.578125 C 17.75 -14.910156 17.222656 -14.382812 16.546875 -14 C 15.878906 -13.613281 15.101562 -13.335938 14.21875 -13.171875 C 13.332031 -13.015625 12.375 -12.9375 11.34375 -12.9375 C 12.53125 -12.6875 13.492188 -12.3125 14.234375 -11.8125 C 14.984375 -11.3125 15.582031 -10.726562 16.03125 -10.0625 C 16.488281 -9.394531 16.84375 -8.6875 17.09375 -7.9375 C 17.351562 -7.1875 17.566406 -6.4375 17.734375 -5.6875 C 17.898438 -4.945312 18.070312 -4.25 18.25 -3.59375 C 18.4375 -2.9375 18.691406 -2.367188 19.015625 -1.890625 C 19.335938 -1.410156 19.78125 -1.066406 20.34375 -0.859375 C 20.34375 -0.859375 20.296875 -0.796875 20.203125 -0.671875 C 20.117188 -0.554688 19.960938 -0.410156 19.734375 -0.234375 C 19.515625 -0.0664062 19.195312 0.078125 18.78125 0.203125 C 18.363281 0.328125 17.835938 0.390625 17.203125 0.390625 C 15.910156 0.390625 14.851562 0.207031 14.03125 -0.15625 C 13.21875 -0.53125 12.585938 -1.03125 12.140625 -1.65625 C 11.691406 -2.28125 11.367188 -2.976562 11.171875 -3.75 C 10.984375 -4.53125 10.863281 -5.335938 10.8125 -6.171875 C 10.757812 -7.015625 10.71875 -7.820312 10.6875 -8.59375 C 10.65625 -9.375 10.582031 -10.078125 10.46875 -10.703125 C 10.363281 -11.328125 10.15625 -11.820312 9.84375 -12.1875 C 9.539062 -12.5625 9.070312 -12.75 8.4375 -12.75 L 8.4375 -2.890625 C 8.4375 -2.128906 8.539062 -1.519531 8.75 -1.0625 C 8.957031 -0.613281 9.300781 -0.328125 9.78125 -0.203125 L 9.78125 0 L 0.515625 0 L 0.515625 -0.203125 C 0.992188 -0.328125 1.335938 -0.613281 1.546875 -1.0625 C 1.753906 -1.519531 1.859375 -2.128906 1.859375 -2.890625 L 1.859375 -20.59375 C 1.859375 -21.363281 1.753906 -21.96875 1.546875 -22.40625 C 1.335938 -22.851562 0.992188 -23.140625 0.515625 -23.265625 Z M 8.859375 -23.203125 L 8.4375 -23.203125 L 8.4375 -13.15625 L 9.1875 -13.15625 C 9.707031 -13.15625 10.191406 -13.3125 10.640625 -13.625 C 11.085938 -13.945312 11.441406 -14.484375 11.703125 -15.234375 C 11.972656 -15.992188 12.109375 -17.03125 12.109375 -18.34375 C 12.109375 -19.1875 12.007812 -19.976562 11.8125 -20.71875 C 11.625 -21.457031 11.296875 -22.054688 10.828125 -22.515625 C 10.359375 -22.972656 9.703125 -23.203125 8.859375 -23.203125 Z M 8.859375 -23.203125 "/></g></g></g><g fill="#20c997" fill-opacity="1"><g transform="translate(155.549705, 46.195342)"><g><path d="M 12.15625 -2.96875 C 12.15625 -3.875 11.992188 -4.65625 11.671875 -5.3125 C 11.359375 -5.96875 10.929688 -6.539062 10.390625 -7.03125 C 9.859375 -7.53125 9.257812 -7.984375 8.59375 -8.390625 C 7.925781 -8.796875 7.238281 -9.191406 6.53125 -9.578125 C 5.832031 -9.972656 5.148438 -10.394531 4.484375 -10.84375 C 3.816406 -11.289062 3.210938 -11.804688 2.671875 -12.390625 C 2.140625 -12.984375 1.710938 -13.679688 1.390625 -14.484375 C 1.078125 -15.285156 0.921875 -16.238281 0.921875 -17.34375 C 0.921875 -18.832031 1.265625 -20.054688 1.953125 -21.015625 C 2.640625 -21.984375 3.570312 -22.703125 4.75 -23.171875 C 5.9375 -23.640625 7.265625 -23.875 8.734375 -23.875 C 9.472656 -23.875 10.144531 -23.84375 10.75 -23.78125 C 11.351562 -23.71875 11.957031 -23.648438 12.5625 -23.578125 C 13.164062 -23.515625 13.835938 -23.484375 14.578125 -23.484375 C 14.785156 -23.484375 15.007812 -23.507812 15.25 -23.5625 C 15.488281 -23.625 15.664062 -23.726562 15.78125 -23.875 L 15.984375 -23.875 L 15.984375 -16.390625 L 15.78125 -16.390625 C 15.707031 -16.953125 15.519531 -17.554688 15.21875 -18.203125 C 14.914062 -18.847656 14.523438 -19.476562 14.046875 -20.09375 C 13.578125 -20.71875 13.046875 -21.285156 12.453125 -21.796875 C 11.867188 -22.316406 11.253906 -22.726562 10.609375 -23.03125 C 9.972656 -23.332031 9.34375 -23.484375 8.71875 -23.484375 C 7.925781 -23.484375 7.257812 -23.238281 6.71875 -22.75 C 6.175781 -22.257812 5.90625 -21.566406 5.90625 -20.671875 C 5.90625 -19.804688 6.0625 -19.054688 6.375 -18.421875 C 6.695312 -17.796875 7.128906 -17.242188 7.671875 -16.765625 C 8.210938 -16.296875 8.816406 -15.863281 9.484375 -15.46875 C 10.148438 -15.082031 10.84375 -14.695312 11.5625 -14.3125 C 12.28125 -13.9375 12.972656 -13.523438 13.640625 -13.078125 C 14.304688 -12.640625 14.910156 -12.132812 15.453125 -11.5625 C 15.992188 -10.988281 16.421875 -10.3125 16.734375 -9.53125 C 17.054688 -8.75 17.21875 -7.832031 17.21875 -6.78125 C 17.21875 -5.757812 17.015625 -4.8125 16.609375 -3.9375 C 16.210938 -3.070312 15.65625 -2.316406 14.9375 -1.671875 C 14.21875 -1.023438 13.367188 -0.519531 12.390625 -0.15625 C 11.421875 0.207031 10.359375 0.390625 9.203125 0.390625 C 8.078125 0.390625 7.054688 0.300781 6.140625 0.125 C 5.234375 -0.0390625 4.378906 -0.304688 3.578125 -0.671875 C 2.773438 -1.035156 1.972656 -1.503906 1.171875 -2.078125 L 1.171875 -9.859375 L 1.421875 -9.859375 C 1.421875 -9.578125 1.515625 -9.140625 1.703125 -8.546875 C 1.890625 -7.953125 2.148438 -7.285156 2.484375 -6.546875 C 2.828125 -5.804688 3.234375 -5.054688 3.703125 -4.296875 C 4.179688 -3.546875 4.707031 -2.847656 5.28125 -2.203125 C 5.863281 -1.554688 6.476562 -1.035156 7.125 -0.640625 C 7.78125 -0.242188 8.460938 -0.046875 9.171875 -0.046875 C 9.929688 -0.046875 10.523438 -0.175781 10.953125 -0.4375 C 11.390625 -0.695312 11.695312 -1.046875 11.875 -1.484375 C 12.0625 -1.921875 12.15625 -2.414062 12.15625 -2.96875 Z M 12.15625 -2.96875 "/></g></g></g><g fill="#20c997" fill-opacity="1"><g transform="translate(173.074974, 46.195342)"><g><path d="M 0.921875 -11.734375 C 0.921875 -13.628906 1.140625 -15.328125 1.578125 -16.828125 C 2.023438 -18.335938 2.648438 -19.613281 3.453125 -20.65625 C 4.265625 -21.695312 5.222656 -22.492188 6.328125 -23.046875 C 7.429688 -23.597656 8.644531 -23.875 9.96875 -23.875 C 11.28125 -23.875 12.488281 -23.597656 13.59375 -23.046875 C 14.707031 -22.492188 15.664062 -21.695312 16.46875 -20.65625 C 17.28125 -19.613281 17.90625 -18.335938 18.34375 -16.828125 C 18.789062 -15.328125 19.015625 -13.628906 19.015625 -11.734375 C 19.015625 -9.191406 18.628906 -7.015625 17.859375 -5.203125 C 17.085938 -3.390625 16.019531 -2.003906 14.65625 -1.046875 C 13.300781 -0.0859375 11.738281 0.390625 9.96875 0.390625 C 8.207031 0.390625 6.644531 -0.0859375 5.28125 -1.046875 C 3.914062 -2.003906 2.847656 -3.390625 2.078125 -5.203125 C 1.304688 -7.015625 0.921875 -9.191406 0.921875 -11.734375 Z M 7.71875 -11.71875 C 7.71875 -10.519531 7.722656 -9.347656 7.734375 -8.203125 C 7.753906 -7.066406 7.796875 -6 7.859375 -5 C 7.929688 -4.007812 8.046875 -3.140625 8.203125 -2.390625 C 8.359375 -1.648438 8.578125 -1.066406 8.859375 -0.640625 C 9.140625 -0.210938 9.507812 0 9.96875 0 C 10.414062 0 10.78125 -0.210938 11.0625 -0.640625 C 11.34375 -1.066406 11.5625 -1.648438 11.71875 -2.390625 C 11.882812 -3.140625 12 -4.007812 12.0625 -5 C 12.132812 -6 12.175781 -7.066406 12.1875 -8.203125 C 12.207031 -9.347656 12.21875 -10.519531 12.21875 -11.71875 C 12.21875 -12.914062 12.207031 -14.085938 12.1875 -15.234375 C 12.175781 -16.378906 12.132812 -17.445312 12.0625 -18.4375 C 12 -19.4375 11.882812 -20.3125 11.71875 -21.0625 C 11.5625 -21.820312 11.335938 -22.414062 11.046875 -22.84375 C 10.765625 -23.269531 10.40625 -23.484375 9.96875 -23.484375 C 9.53125 -23.484375 9.164062 -23.269531 8.875 -22.84375 C 8.582031 -22.414062 8.359375 -21.820312 8.203125 -21.0625 C 8.046875 -20.3125 7.929688 -19.4375 7.859375 -18.4375 C 7.796875 -17.445312 7.753906 -16.378906 7.734375 -15.234375 C 7.722656 -14.085938 7.71875 -12.914062 7.71875 -11.71875 Z M 7.71875 -11.71875 "/></g></g></g><g fill="#20c997" fill-opacity="1"><g transform="translate(192.391923, 46.195342)"><g><path d="M 0.515625 -23.265625 L 0.515625 -23.484375 L 7.234375 -23.484375 L 16.984375 -6.734375 L 16.984375 -8.078125 C 16.984375 -9.085938 16.914062 -10.15625 16.78125 -11.28125 C 16.644531 -12.40625 16.453125 -13.53125 16.203125 -14.65625 C 15.960938 -15.78125 15.675781 -16.847656 15.34375 -17.859375 C 15.007812 -18.867188 14.640625 -19.773438 14.234375 -20.578125 C 13.835938 -21.378906 13.414062 -22.015625 12.96875 -22.484375 C 12.53125 -22.960938 12.085938 -23.222656 11.640625 -23.265625 L 11.640625 -23.484375 L 18.734375 -23.484375 L 18.734375 -23.265625 C 18.253906 -23.140625 17.910156 -22.851562 17.703125 -22.40625 C 17.503906 -21.96875 17.40625 -21.363281 17.40625 -20.59375 L 17.40625 -2.890625 C 17.40625 -2.128906 17.503906 -1.519531 17.703125 -1.0625 C 17.910156 -0.613281 18.253906 -0.328125 18.734375 -0.203125 L 18.734375 0 L 13.03125 0 L 2.265625 -18.5 L 2.265625 -17.375 C 2.265625 -16.269531 2.328125 -15.097656 2.453125 -13.859375 C 2.585938 -12.617188 2.773438 -11.378906 3.015625 -10.140625 C 3.265625 -8.910156 3.5625 -7.726562 3.90625 -6.59375 C 4.25 -5.46875 4.625 -4.441406 5.03125 -3.515625 C 5.445312 -2.597656 5.890625 -1.847656 6.359375 -1.265625 C 6.828125 -0.691406 7.316406 -0.335938 7.828125 -0.203125 L 7.828125 0 L 0.515625 0 L 0.515625 -0.203125 C 0.992188 -0.328125 1.335938 -0.613281 1.546875 -1.0625 C 1.753906 -1.519531 1.859375 -2.128906 1.859375 -2.890625 L 1.859375 -20.59375 C 1.859375 -21.363281 1.753906 -21.96875 1.546875 -22.40625 C 1.335938 -22.851562 0.992188 -23.140625 0.515625 -23.265625 Z M 0.515625 -23.265625 "/></g></g></g><g clip-path="url(#afa1a41ea1)"><path fill="#1a1a1a" d="M 57.304688 34.855469 L 167.570312 34.855469 L 167.570312 43.808594 L 57.304688 43.808594 Z M 57.304688 34.855469 " fill-opacity="1" fill-rule="nonzero"/></g><g fill="#ffffff" fill-opacity="1"><g transform="translate(62.651727, 40.630277)"><g><path d="M 1.296875 0.046875 C 1.078125 0.046875 0.890625 0.0078125 0.734375 -0.0625 C 0.578125 -0.132812 0.453125 -0.238281 0.359375 -0.375 C 0.273438 -0.507812 0.234375 -0.664062 0.234375 -0.84375 L 0.578125 -0.84375 C 0.578125 -0.664062 0.644531 -0.523438 0.78125 -0.421875 C 0.914062 -0.328125 1.085938 -0.28125 1.296875 -0.28125 C 1.492188 -0.28125 1.648438 -0.316406 1.765625 -0.390625 C 1.878906 -0.460938 1.9375 -0.566406 1.9375 -0.703125 C 1.9375 -0.828125 1.878906 -0.925781 1.765625 -1 C 1.660156 -1.082031 1.484375 -1.148438 1.234375 -1.203125 C 0.898438 -1.285156 0.65625 -1.390625 0.5 -1.515625 C 0.34375 -1.640625 0.265625 -1.804688 0.265625 -2.015625 C 0.265625 -2.253906 0.351562 -2.441406 0.53125 -2.578125 C 0.707031 -2.710938 0.941406 -2.78125 1.234375 -2.78125 C 1.546875 -2.78125 1.789062 -2.703125 1.96875 -2.546875 C 2.144531 -2.390625 2.234375 -2.179688 2.234375 -1.921875 L 1.890625 -1.921875 C 1.890625 -2.078125 1.828125 -2.203125 1.703125 -2.296875 C 1.585938 -2.398438 1.429688 -2.453125 1.234375 -2.453125 C 1.046875 -2.453125 0.894531 -2.410156 0.78125 -2.328125 C 0.664062 -2.253906 0.609375 -2.148438 0.609375 -2.015625 C 0.609375 -1.910156 0.660156 -1.816406 0.765625 -1.734375 C 0.867188 -1.660156 1.050781 -1.59375 1.3125 -1.53125 C 1.664062 -1.445312 1.914062 -1.335938 2.0625 -1.203125 C 2.207031 -1.078125 2.28125 -0.914062 2.28125 -0.71875 C 2.28125 -0.476562 2.191406 -0.289062 2.015625 -0.15625 C 1.835938 -0.0195312 1.597656 0.046875 1.296875 0.046875 Z M 1.296875 0.046875 "/></g></g></g><g fill="#ffffff" fill-opacity="1"><g transform="translate(68.292731, 40.630277)"><g><path d="M 1.640625 0.046875 C 1.359375 0.046875 1.109375 -0.0078125 0.890625 -0.125 C 0.679688 -0.25 0.515625 -0.414062 0.390625 -0.625 C 0.273438 -0.84375 0.21875 -1.085938 0.21875 -1.359375 C 0.21875 -1.640625 0.273438 -1.882812 0.390625 -2.09375 C 0.515625 -2.300781 0.679688 -2.46875 0.890625 -2.59375 C 1.109375 -2.71875 1.359375 -2.78125 1.640625 -2.78125 C 1.910156 -2.78125 2.148438 -2.71875 2.359375 -2.59375 C 2.578125 -2.46875 2.742188 -2.300781 2.859375 -2.09375 C 2.984375 -1.882812 3.046875 -1.640625 3.046875 -1.359375 C 3.046875 -1.085938 2.984375 -0.84375 2.859375 -0.625 C 2.742188 -0.414062 2.578125 -0.25 2.359375 -0.125 C 2.148438 -0.0078125 1.910156 0.046875 1.640625 0.046875 Z M 0.578125 -1.359375 C 0.578125 -1.148438 0.617188 -0.960938 0.703125 -0.796875 C 0.796875 -0.640625 0.921875 -0.515625 1.078125 -0.421875 C 1.242188 -0.335938 1.429688 -0.296875 1.640625 -0.296875 C 1.847656 -0.296875 2.03125 -0.335938 2.1875 -0.421875 C 2.34375 -0.515625 2.460938 -0.640625 2.546875 -0.796875 C 2.640625 -0.960938 2.6875 -1.148438 2.6875 -1.359375 C 2.6875 -1.578125 2.640625 -1.765625 2.546875 -1.921875 C 2.460938 -2.078125 2.34375 -2.203125 2.1875 -2.296875 C 2.03125 -2.390625 1.847656 -2.4375 1.640625 -2.4375 C 1.429688 -2.4375 1.242188 -2.390625 1.078125 -2.296875 C 0.921875 -2.203125 0.796875 -2.078125 0.703125 -1.921875 C 0.617188 -1.765625 0.578125 -1.578125 0.578125 -1.359375 Z M 0.578125 -1.359375 "/></g></g></g><g fill="#ffffff" fill-opacity="1"><g transform="translate(74.686134, 40.630277)"><g><path d="M 0.390625 0 L 0.390625 -2.71875 L 1.953125 -2.71875 L 1.953125 -2.40625 L 0.734375 -2.40625 L 0.734375 -1.46875 L 1.859375 -1.46875 L 1.859375 -1.140625 L 0.734375 -1.140625 L 0.734375 0 Z M 0.390625 0 "/></g></g></g><g fill="#ffffff" fill-opacity="1"><g transform="translate(79.980178, 40.630277)"><g><path d="M 1.046875 0 L 1.046875 -2.390625 L 0.125 -2.390625 L 0.125 -2.71875 L 2.3125 -2.71875 L 2.3125 -2.390625 L 1.390625 -2.390625 L 1.390625 0 Z M 1.046875 0 "/></g></g></g><g fill="#ffffff" fill-opacity="1"><g transform="translate(85.55491, 40.630277)"><g><path d="M 0.953125 0 L 0.078125 -2.71875 L 0.4375 -2.71875 L 0.8125 -1.546875 L 1.125 -0.546875 L 1.9375 -2.71875 L 2.25 -2.71875 L 3.0625 -0.546875 L 3.765625 -2.71875 L 4.125 -2.71875 L 3.234375 0 L 2.90625 0 L 2.546875 -0.984375 L 2.09375 -2.203125 L 1.28125 0 Z M 0.953125 0 "/></g></g></g><g fill="#ffffff" fill-opacity="1"><g transform="translate(92.876138, 40.630277)"><g><path d="M 0.0625 0 L 1.1875 -2.71875 L 1.5 -2.71875 L 2.625 0 L 2.265625 0 L 2 -0.625 L 0.6875 -0.625 L 0.4375 0 Z M 0.8125 -0.9375 L 1.875 -0.9375 L 1.34375 -2.25 Z M 0.8125 -0.9375 "/></g></g></g><g fill="#ffffff" fill-opacity="1"><g transform="translate(98.692572, 40.630277)"><g><path d="M 0.390625 0 L 0.390625 -2.71875 L 1.4375 -2.71875 C 1.625 -2.71875 1.785156 -2.679688 1.921875 -2.609375 C 2.066406 -2.546875 2.175781 -2.445312 2.25 -2.3125 C 2.332031 -2.1875 2.375 -2.03125 2.375 -1.84375 C 2.375 -1.625 2.316406 -1.441406 2.203125 -1.296875 C 2.085938 -1.148438 1.929688 -1.054688 1.734375 -1.015625 L 2.421875 0 L 2 0 L 1.34375 -0.96875 L 0.734375 -0.96875 L 0.734375 0 Z M 0.734375 -1.296875 L 1.390625 -1.296875 C 1.597656 -1.296875 1.753906 -1.34375 1.859375 -1.4375 C 1.960938 -1.539062 2.015625 -1.675781 2.015625 -1.84375 C 2.015625 -2.019531 1.960938 -2.15625 1.859375 -2.25 C 1.753906 -2.34375 1.597656 -2.390625 1.390625 -2.390625 L 0.734375 -2.390625 Z M 0.734375 -1.296875 "/></g></g></g><g fill="#ffffff" fill-opacity="1"><g transform="translate(104.466122, 40.630277)"><g><path d="M 0.390625 0 L 0.390625 -2.71875 L 2.046875 -2.71875 L 2.046875 -2.40625 L 0.734375 -2.40625 L 0.734375 -1.546875 L 1.953125 -1.546875 L 1.953125 -1.234375 L 0.734375 -1.234375 L 0.734375 -0.3125 L 2.09375 -0.3125 L 2.09375 0 Z M 0.390625 0 "/></g></g></g><g fill="#ffffff" fill-opacity="1"><g transform="translate(109.935598, 40.630277)"><g/></g></g><g fill="#ffffff" fill-opacity="1"><g transform="translate(114.021134, 40.630277)"><g><path d="M 0.390625 0 L 0.390625 -2.71875 L 1.34375 -2.71875 C 1.625 -2.71875 1.867188 -2.660156 2.078125 -2.546875 C 2.285156 -2.429688 2.445312 -2.269531 2.5625 -2.0625 C 2.675781 -1.863281 2.734375 -1.628906 2.734375 -1.359375 C 2.734375 -1.097656 2.675781 -0.863281 2.5625 -0.65625 C 2.445312 -0.445312 2.285156 -0.285156 2.078125 -0.171875 C 1.867188 -0.0546875 1.625 0 1.34375 0 Z M 0.734375 -0.328125 L 1.34375 -0.328125 C 1.550781 -0.328125 1.734375 -0.367188 1.890625 -0.453125 C 2.046875 -0.546875 2.164062 -0.664062 2.25 -0.8125 C 2.34375 -0.96875 2.390625 -1.148438 2.390625 -1.359375 C 2.390625 -1.566406 2.34375 -1.75 2.25 -1.90625 C 2.15625 -2.0625 2.03125 -2.179688 1.875 -2.265625 C 1.71875 -2.347656 1.535156 -2.390625 1.328125 -2.390625 L 0.734375 -2.390625 Z M 0.734375 -0.328125 "/></g></g></g><g fill="#ffffff" fill-opacity="1"><g transform="translate(120.106561, 40.630277)"><g><path d="M 0.390625 0 L 0.390625 -2.71875 L 2.046875 -2.71875 L 2.046875 -2.40625 L 0.734375 -2.40625 L 0.734375 -1.546875 L 1.953125 -1.546875 L 1.953125 -1.234375 L 0.734375 -1.234375 L 0.734375 -0.3125 L 2.09375 -0.3125 L 2.09375 0 Z M 0.390625 0 "/></g></g></g><g fill="#ffffff" fill-opacity="1"><g transform="translate(125.576037, 40.630277)"><g><path d="M 1.15625 0 L 0.0625 -2.71875 L 0.4375 -2.71875 L 0.890625 -1.578125 L 1.3125 -0.5 L 1.734375 -1.578125 L 2.1875 -2.71875 L 2.546875 -2.71875 L 1.46875 0 Z M 1.15625 0 "/></g></g></g><g fill="#ffffff" fill-opacity="1"><g transform="translate(131.3184, 40.630277)"><g><path d="M 0.390625 0 L 0.390625 -2.71875 L 2.046875 -2.71875 L 2.046875 -2.40625 L 0.734375 -2.40625 L 0.734375 -1.546875 L 1.953125 -1.546875 L 1.953125 -1.234375 L 0.734375 -1.234375 L 0.734375 -0.3125 L 2.09375 -0.3125 L 2.09375 0 Z M 0.390625 0 "/></g></g></g><g fill="#ffffff" fill-opacity="1"><g transform="translate(136.787876, 40.630277)"><g><path d="M 0.390625 0 L 0.390625 -2.71875 L 0.734375 -2.71875 L 0.734375 -0.328125 L 2.0625 -0.328125 L 2.0625 0 Z M 0.390625 0 "/></g></g></g><g fill="#ffffff" fill-opacity="1"><g transform="translate(142.093614, 40.630277)"><g><path d="M 1.640625 0.046875 C 1.359375 0.046875 1.109375 -0.0078125 0.890625 -0.125 C 0.679688 -0.25 0.515625 -0.414062 0.390625 -0.625 C 0.273438 -0.84375 0.21875 -1.085938 0.21875 -1.359375 C 0.21875 -1.640625 0.273438 -1.882812 0.390625 -2.09375 C 0.515625 -2.300781 0.679688 -2.46875 0.890625 -2.59375 C 1.109375 -2.71875 1.359375 -2.78125 1.640625 -2.78125 C 1.910156 -2.78125 2.148438 -2.71875 2.359375 -2.59375 C 2.578125 -2.46875 2.742188 -2.300781 2.859375 -2.09375 C 2.984375 -1.882812 3.046875 -1.640625 3.046875 -1.359375 C 3.046875 -1.085938 2.984375 -0.84375 2.859375 -0.625 C 2.742188 -0.414062 2.578125 -0.25 2.359375 -0.125 C 2.148438 -0.0078125 1.910156 0.046875 1.640625 0.046875 Z M 0.578125 -1.359375 C 0.578125 -1.148438 0.617188 -0.960938 0.703125 -0.796875 C 0.796875 -0.640625 0.921875 -0.515625 1.078125 -0.421875 C 1.242188 -0.335938 1.429688 -0.296875 1.640625 -0.296875 C 1.847656 -0.296875 2.03125 -0.335938 2.1875 -0.421875 C 2.34375 -0.515625 2.460938 -0.640625 2.546875 -0.796875 C 2.640625 -0.960938 2.6875 -1.148438 2.6875 -1.359375 C 2.6875 -1.578125 2.640625 -1.765625 2.546875 -1.921875 C 2.460938 -2.078125 2.34375 -2.203125 2.1875 -2.296875 C 2.03125 -2.390625 1.847656 -2.4375 1.640625 -2.4375 C 1.429688 -2.4375 1.242188 -2.390625 1.078125 -2.296875 C 0.921875 -2.203125 0.796875 -2.078125 0.703125 -1.921875 C 0.617188 -1.765625 0.578125 -1.578125 0.578125 -1.359375 Z M 0.578125 -1.359375 "/></g></g></g><g fill="#ffffff" fill-opacity="1"><g transform="translate(148.487019, 40.630277)"><g><path d="M 0.390625 0 L 0.390625 -2.71875 L 1.3125 -2.71875 C 1.519531 -2.71875 1.695312 -2.679688 1.84375 -2.609375 C 2 -2.535156 2.117188 -2.429688 2.203125 -2.296875 C 2.285156 -2.160156 2.328125 -2 2.328125 -1.8125 C 2.328125 -1.625 2.285156 -1.460938 2.203125 -1.328125 C 2.117188 -1.191406 2 -1.082031 1.84375 -1 C 1.695312 -0.925781 1.519531 -0.890625 1.3125 -0.890625 L 0.734375 -0.890625 L 0.734375 0 Z M 0.734375 -1.21875 L 1.3125 -1.21875 C 1.757812 -1.21875 1.984375 -1.414062 1.984375 -1.8125 C 1.984375 -2.195312 1.757812 -2.390625 1.3125 -2.390625 L 0.734375 -2.390625 Z M 0.734375 -1.21875 "/></g></g></g><g fill="#ffffff" fill-opacity="1"><g transform="translate(154.09684, 40.630277)"><g><path d="M 0.390625 0 L 0.390625 -2.71875 L 2.046875 -2.71875 L 2.046875 -2.40625 L 0.734375 -2.40625 L 0.734375 -1.546875 L 1.953125 -1.546875 L 1.953125 -1.234375 L 0.734375 -1.234375 L 0.734375 -0.3125 L 2.09375 -0.3125 L 2.09375 0 Z M 0.390625 0 "/></g></g></g><g fill="#ffffff" fill-opacity="1"><g transform="translate(159.566316, 40.630277)"><g><path d="M 0.390625 0 L 0.390625 -2.71875 L 1.4375 -2.71875 C 1.625 -2.71875 1.785156 -2.679688 1.921875 -2.609375 C 2.066406 -2.546875 2.175781 -2.445312 2.25 -2.3125 C 2.332031 -2.1875 2.375 -2.03125 2.375 -1.84375 C 2.375 -1.625 2.316406 -1.441406 2.203125 -1.296875 C 2.085938 -1.148438 1.929688 -1.054688 1.734375 -1.015625 L 2.421875 0 L 2 0 L 1.34375 -0.96875 L 0.734375 -0.96875 L 0.734375 0 Z M 0.734375 -1.296875 L 1.390625 -1.296875 C 1.597656 -1.296875 1.753906 -1.34375 1.859375 -1.4375 C 1.960938 -1.539062 2.015625 -1.675781 2.015625 -1.84375 C 2.015625 -2.019531 1.960938 -2.15625 1.859375 -2.25 C 1.753906 -2.34375 1.597656 -2.390625 1.390625 -2.390625 L 0.734375 -2.390625 Z M 0.734375 -1.296875 "/></g></g></g></svg>