<svg xmlns="http://www.w3.org/2000/svg" xmlns:xlink="http://www.w3.org/1999/xlink" width="300" zoomAndPan="magnify" viewBox="0 0 224.87999 74.999997" height="100" preserveAspectRatio="xMidYMid meet" version="1.0"><defs><g/><clipPath id="f7e3e1d938"><path d="M 27.132812 50.300781 L 197.746094 50.300781 L 197.746094 58.269531 L 27.132812 58.269531 Z M 27.132812 50.300781 " clip-rule="nonzero"/></clipPath></defs><g fill="#f91762" fill-opacity="1"><g transform="translate(4.882079, 47.244795)"><g><path d="M 16.640625 -21.65625 L 16.640625 -7.671875 C 16.640625 -5.085938 15.957031 -3.125 14.59375 -1.78125 C 13.238281 -0.445312 11.335938 0.21875 8.890625 0.21875 C 6.265625 0.21875 4.175781 -0.503906 2.625 -1.953125 C 1.082031 -3.398438 0.3125 -5.507812 0.3125 -8.28125 L 7 -8.28125 C 7 -7.40625 7.140625 -6.789062 7.421875 -6.4375 C 7.710938 -6.082031 8.101562 -5.90625 8.59375 -5.90625 C 9 -5.90625 9.3125 -6.035156 9.53125 -6.296875 C 9.757812 -6.566406 9.875 -7.023438 9.875 -7.671875 L 9.875 -21.65625 Z M 16.640625 -21.65625 "/></g></g></g><g fill="#f91762" fill-opacity="1"><g transform="translate(22.007371, 47.244795)"><g><path d="M 8.171875 -21.65625 L 8.171875 -9.453125 C 8.171875 -8.453125 8.390625 -7.660156 8.828125 -7.078125 C 9.265625 -6.492188 9.972656 -6.203125 10.953125 -6.203125 C 11.929688 -6.203125 12.65625 -6.492188 13.125 -7.078125 C 13.59375 -7.660156 13.828125 -8.453125 13.828125 -9.453125 L 13.828125 -21.65625 L 20.578125 -21.65625 L 20.578125 -9.453125 C 20.578125 -7.390625 20.148438 -5.628906 19.296875 -4.171875 C 18.441406 -2.710938 17.269531 -1.613281 15.78125 -0.875 C 14.289062 -0.144531 12.628906 0.21875 10.796875 0.21875 C 8.960938 0.21875 7.335938 -0.144531 5.921875 -0.875 C 4.503906 -1.613281 3.394531 -2.707031 2.59375 -4.15625 C 1.800781 -5.601562 1.40625 -7.367188 1.40625 -9.453125 L 1.40625 -21.65625 Z M 8.171875 -21.65625 "/></g></g></g><g fill="#f91762" fill-opacity="1"><g transform="translate(43.077648, 47.244795)"><g><path d="M 8.3125 -5.140625 L 14.859375 -5.140625 L 14.859375 0 L 1.53125 0 L 1.53125 -21.65625 L 8.3125 -21.65625 Z M 8.3125 -5.140625 "/></g></g></g><g fill="#f91762" fill-opacity="1"><g transform="translate(57.634116, 47.244795)"><g><path d="M 8.3125 -21.65625 L 8.3125 0 L 1.53125 0 L 1.53125 -21.65625 Z M 8.3125 -21.65625 "/></g></g></g><g fill="#f91762" fill-opacity="1"><g transform="translate(66.563633, 47.244795)"><g><path d="M 15.40625 -3.265625 L 8.1875 -3.265625 L 7.125 0 L 0 0 L 7.921875 -21.65625 L 15.75 -21.65625 L 23.640625 0 L 16.484375 0 Z M 13.765625 -8.375 L 11.796875 -14.40625 L 9.84375 -8.375 Z M 13.765625 -8.375 "/></g></g></g><g fill="#f91762" fill-opacity="1"><g transform="translate(89.285292, 47.244795)"><g/></g></g><g fill="#f91762" fill-opacity="1"><g transform="translate(93.566467, 47.244795)"><g><path d="M 19.234375 -14.21875 C 19.234375 -12.851562 18.914062 -11.613281 18.28125 -10.5 C 17.65625 -9.394531 16.722656 -8.515625 15.484375 -7.859375 C 14.253906 -7.203125 12.765625 -6.875 11.015625 -6.875 L 8.3125 -6.875 L 8.3125 0 L 1.53125 0 L 1.53125 -21.65625 L 11.015625 -21.65625 C 13.660156 -21.65625 15.691406 -20.976562 17.109375 -19.625 C 18.523438 -18.28125 19.234375 -16.476562 19.234375 -14.21875 Z M 10.25 -12.234375 C 11.65625 -12.234375 12.359375 -12.894531 12.359375 -14.21875 C 12.359375 -15.539062 11.65625 -16.203125 10.25 -16.203125 L 8.3125 -16.203125 L 8.3125 -12.234375 Z M 10.25 -12.234375 "/></g></g></g><g fill="#f91762" fill-opacity="1"><g transform="translate(112.496062, 47.244795)"><g><path d="M 15.40625 -3.265625 L 8.1875 -3.265625 L 7.125 0 L 0 0 L 7.921875 -21.65625 L 15.75 -21.65625 L 23.640625 0 L 16.484375 0 Z M 13.765625 -8.375 L 11.796875 -14.40625 L 9.84375 -8.375 Z M 13.765625 -8.375 "/></g></g></g><g fill="#f91762" fill-opacity="1"><g transform="translate(135.217716, 47.244795)"><g><path d="M 12.421875 0 L 8.34375 -7.765625 L 8.3125 -7.765625 L 8.3125 0 L 1.53125 0 L 1.53125 -21.65625 L 11.625 -21.65625 C 13.375 -21.65625 14.867188 -21.34375 16.109375 -20.71875 C 17.359375 -20.09375 18.289062 -19.242188 18.90625 -18.171875 C 19.53125 -17.109375 19.84375 -15.90625 19.84375 -14.5625 C 19.84375 -13.113281 19.4375 -11.828125 18.625 -10.703125 C 17.820312 -9.578125 16.671875 -8.769531 15.171875 -8.28125 L 19.875 0 Z M 8.3125 -12.296875 L 11.015625 -12.296875 C 11.660156 -12.296875 12.144531 -12.441406 12.46875 -12.734375 C 12.800781 -13.023438 12.96875 -13.488281 12.96875 -14.125 C 12.96875 -14.695312 12.796875 -15.144531 12.453125 -15.46875 C 12.117188 -15.800781 11.640625 -15.96875 11.015625 -15.96875 L 8.3125 -15.96875 Z M 8.3125 -12.296875 "/></g></g></g><g fill="#f91762" fill-opacity="1"><g transform="translate(154.789508, 47.244795)"><g><path d="M 10 0.21875 C 7.40625 0.21875 5.265625 -0.382812 3.578125 -1.59375 C 1.898438 -2.8125 0.992188 -4.59375 0.859375 -6.9375 L 8.078125 -6.9375 C 8.171875 -5.695312 8.71875 -5.078125 9.71875 -5.078125 C 10.09375 -5.078125 10.40625 -5.160156 10.65625 -5.328125 C 10.90625 -5.503906 11.03125 -5.773438 11.03125 -6.140625 C 11.03125 -6.648438 10.753906 -7.0625 10.203125 -7.375 C 9.660156 -7.695312 8.804688 -8.0625 7.640625 -8.46875 C 6.253906 -8.957031 5.109375 -9.4375 4.203125 -9.90625 C 3.296875 -10.375 2.515625 -11.054688 1.859375 -11.953125 C 1.210938 -12.847656 0.898438 -14 0.921875 -15.40625 C 0.921875 -16.8125 1.28125 -18.007812 2 -19 C 2.726562 -19.988281 3.71875 -20.738281 4.96875 -21.25 C 6.21875 -21.757812 7.628906 -22.015625 9.203125 -22.015625 C 11.847656 -22.015625 13.953125 -21.398438 15.515625 -20.171875 C 17.078125 -18.953125 17.898438 -17.234375 17.984375 -15.015625 L 10.671875 -15.015625 C 10.648438 -15.628906 10.492188 -16.066406 10.203125 -16.328125 C 9.921875 -16.585938 9.578125 -16.71875 9.171875 -16.71875 C 8.890625 -16.71875 8.65625 -16.617188 8.46875 -16.421875 C 8.28125 -16.234375 8.1875 -15.96875 8.1875 -15.625 C 8.1875 -15.132812 8.457031 -14.726562 9 -14.40625 C 9.539062 -14.09375 10.40625 -13.710938 11.59375 -13.265625 C 12.957031 -12.753906 14.082031 -12.265625 14.96875 -11.796875 C 15.851562 -11.328125 16.617188 -10.675781 17.265625 -9.84375 C 17.921875 -9.007812 18.25 -7.960938 18.25 -6.703125 C 18.25 -5.367188 17.921875 -4.175781 17.265625 -3.125 C 16.617188 -2.082031 15.671875 -1.265625 14.421875 -0.671875 C 13.179688 -0.078125 11.707031 0.21875 10 0.21875 Z M 10 0.21875 "/></g></g></g><g fill="#f91762" fill-opacity="1"><g transform="translate(172.98515, 47.244795)"><g><path d="M 12.078125 0.21875 C 10.035156 0.21875 8.160156 -0.257812 6.453125 -1.21875 C 4.753906 -2.175781 3.40625 -3.5 2.40625 -5.1875 C 1.414062 -6.882812 0.921875 -8.796875 0.921875 -10.921875 C 0.921875 -13.035156 1.414062 -14.9375 2.40625 -16.625 C 3.40625 -18.320312 4.753906 -19.644531 6.453125 -20.59375 C 8.160156 -21.539062 10.035156 -22.015625 12.078125 -22.015625 C 14.117188 -22.015625 15.984375 -21.539062 17.671875 -20.59375 C 19.367188 -19.644531 20.707031 -18.320312 21.6875 -16.625 C 22.675781 -14.9375 23.171875 -13.035156 23.171875 -10.921875 C 23.171875 -8.796875 22.675781 -6.882812 21.6875 -5.1875 C 20.707031 -3.5 19.363281 -2.175781 17.65625 -1.21875 C 15.957031 -0.257812 14.097656 0.21875 12.078125 0.21875 Z M 12.078125 -6.109375 C 13.421875 -6.109375 14.457031 -6.539062 15.1875 -7.40625 C 15.925781 -8.28125 16.296875 -9.453125 16.296875 -10.921875 C 16.296875 -12.410156 15.925781 -13.585938 15.1875 -14.453125 C 14.457031 -15.316406 13.421875 -15.75 12.078125 -15.75 C 10.710938 -15.75 9.660156 -15.316406 8.921875 -14.453125 C 8.191406 -13.585938 7.828125 -12.410156 7.828125 -10.921875 C 7.828125 -9.453125 8.191406 -8.28125 8.921875 -7.40625 C 9.660156 -6.539062 10.710938 -6.109375 12.078125 -6.109375 Z M 12.078125 -6.109375 "/></g></g></g><g fill="#f91762" fill-opacity="1"><g transform="translate(196.165535, 47.244795)"><g><path d="M 22.296875 0 L 15.5 0 L 8.3125 -10.890625 L 8.3125 0 L 1.53125 0 L 1.53125 -21.65625 L 8.3125 -21.65625 L 15.5 -10.578125 L 15.5 -21.65625 L 22.296875 -21.65625 Z M 22.296875 0 "/></g></g></g><g clip-path="url(#f7e3e1d938)"><path fill="#1a1a1a" d="M 27.132812 50.300781 L 197.742188 50.300781 L 197.742188 58.269531 L 27.132812 58.269531 Z M 27.132812 50.300781 " fill-opacity="1" fill-rule="nonzero"/></g><g fill="#ffffff" fill-opacity="1"><g transform="translate(40.428382, 56.166451)"><g><path d="M 1.890625 0.078125 C 1.578125 0.078125 1.300781 0.0234375 1.0625 -0.078125 C 0.832031 -0.191406 0.65625 -0.34375 0.53125 -0.53125 C 0.40625 -0.726562 0.34375 -0.957031 0.34375 -1.21875 L 0.828125 -1.21875 C 0.835938 -0.957031 0.9375 -0.753906 1.125 -0.609375 C 1.320312 -0.472656 1.578125 -0.40625 1.890625 -0.40625 C 2.171875 -0.40625 2.390625 -0.457031 2.546875 -0.5625 C 2.710938 -0.675781 2.796875 -0.828125 2.796875 -1.015625 C 2.796875 -1.203125 2.71875 -1.347656 2.5625 -1.453125 C 2.40625 -1.566406 2.144531 -1.664062 1.78125 -1.75 C 1.300781 -1.863281 0.945312 -2.007812 0.71875 -2.1875 C 0.5 -2.375 0.390625 -2.625 0.390625 -2.9375 C 0.390625 -3.269531 0.515625 -3.53125 0.765625 -3.71875 C 1.015625 -3.914062 1.359375 -4.015625 1.796875 -4.015625 C 2.234375 -4.015625 2.582031 -3.90625 2.84375 -3.6875 C 3.101562 -3.46875 3.234375 -3.164062 3.234375 -2.78125 L 2.75 -2.78125 C 2.738281 -3.019531 2.648438 -3.207031 2.484375 -3.34375 C 2.316406 -3.476562 2.085938 -3.546875 1.796875 -3.546875 C 1.515625 -3.546875 1.289062 -3.488281 1.125 -3.375 C 0.96875 -3.269531 0.890625 -3.125 0.890625 -2.9375 C 0.890625 -2.769531 0.960938 -2.628906 1.109375 -2.515625 C 1.265625 -2.410156 1.53125 -2.3125 1.90625 -2.21875 C 2.414062 -2.09375 2.773438 -1.9375 2.984375 -1.75 C 3.203125 -1.5625 3.3125 -1.320312 3.3125 -1.03125 C 3.3125 -0.695312 3.179688 -0.425781 2.921875 -0.21875 C 2.660156 -0.0195312 2.316406 0.078125 1.890625 0.078125 Z M 1.890625 0.078125 "/></g></g></g><g fill="#ffffff" fill-opacity="1"><g transform="translate(48.587468, 56.166451)"><g><path d="M 2.375 0.078125 C 1.96875 0.078125 1.609375 -0.0078125 1.296875 -0.1875 C 0.992188 -0.363281 0.753906 -0.601562 0.578125 -0.90625 C 0.410156 -1.21875 0.328125 -1.570312 0.328125 -1.96875 C 0.328125 -2.375 0.410156 -2.726562 0.578125 -3.03125 C 0.753906 -3.34375 0.992188 -3.582031 1.296875 -3.75 C 1.609375 -3.925781 1.96875 -4.015625 2.375 -4.015625 C 2.769531 -4.015625 3.117188 -3.925781 3.421875 -3.75 C 3.734375 -3.582031 3.976562 -3.34375 4.15625 -3.03125 C 4.332031 -2.726562 4.421875 -2.375 4.421875 -1.96875 C 4.421875 -1.570312 4.332031 -1.21875 4.15625 -0.90625 C 3.976562 -0.601562 3.734375 -0.363281 3.421875 -0.1875 C 3.117188 -0.0078125 2.769531 0.078125 2.375 0.078125 Z M 0.828125 -1.96875 C 0.828125 -1.664062 0.890625 -1.394531 1.015625 -1.15625 C 1.148438 -0.925781 1.332031 -0.742188 1.5625 -0.609375 C 1.800781 -0.484375 2.070312 -0.421875 2.375 -0.421875 C 2.675781 -0.421875 2.941406 -0.484375 3.171875 -0.609375 C 3.398438 -0.742188 3.578125 -0.925781 3.703125 -1.15625 C 3.835938 -1.394531 3.90625 -1.664062 3.90625 -1.96875 C 3.90625 -2.28125 3.835938 -2.550781 3.703125 -2.78125 C 3.578125 -3.007812 3.398438 -3.191406 3.171875 -3.328125 C 2.941406 -3.460938 2.675781 -3.53125 2.375 -3.53125 C 2.070312 -3.53125 1.800781 -3.460938 1.5625 -3.328125 C 1.332031 -3.191406 1.148438 -3.007812 1.015625 -2.78125 C 0.890625 -2.550781 0.828125 -2.28125 0.828125 -1.96875 Z M 0.828125 -1.96875 "/></g></g></g><g fill="#ffffff" fill-opacity="1"><g transform="translate(57.834816, 56.166451)"><g><path d="M 0.578125 0 L 0.578125 -3.953125 L 2.84375 -3.953125 L 2.84375 -3.484375 L 1.078125 -3.484375 L 1.078125 -2.125 L 2.6875 -2.125 L 2.6875 -1.65625 L 1.078125 -1.65625 L 1.078125 0 Z M 0.578125 0 "/></g></g></g><g fill="#ffffff" fill-opacity="1"><g transform="translate(65.492063, 56.166451)"><g><path d="M 1.53125 0 L 1.53125 -3.46875 L 0.1875 -3.46875 L 0.1875 -3.953125 L 3.359375 -3.953125 L 3.359375 -3.46875 L 2.03125 -3.46875 L 2.03125 0 Z M 1.53125 0 "/></g></g></g><g fill="#ffffff" fill-opacity="1"><g transform="translate(73.555294, 56.166451)"><g><path d="M 1.390625 0 L 0.109375 -3.953125 L 0.625 -3.953125 L 1.171875 -2.25 L 1.640625 -0.796875 L 2.796875 -3.953125 L 3.265625 -3.953125 L 4.4375 -0.796875 L 5.453125 -3.953125 L 5.96875 -3.953125 L 4.6875 0 L 4.21875 0 L 3.6875 -1.4375 L 3.03125 -3.203125 L 1.84375 0 Z M 1.390625 0 "/></g></g></g><g fill="#ffffff" fill-opacity="1"><g transform="translate(84.144638, 56.166451)"><g><path d="M 0.09375 0 L 1.71875 -3.953125 L 2.1875 -3.953125 L 3.8125 0 L 3.28125 0 L 2.90625 -0.890625 L 0.984375 -0.890625 L 0.625 0 Z M 1.171875 -1.359375 L 2.71875 -1.359375 L 1.953125 -3.25 Z M 1.171875 -1.359375 "/></g></g></g><g fill="#ffffff" fill-opacity="1"><g transform="translate(92.557464, 56.166451)"><g><path d="M 0.578125 0 L 0.578125 -3.953125 L 2.078125 -3.953125 C 2.359375 -3.953125 2.597656 -3.898438 2.796875 -3.796875 C 3.003906 -3.691406 3.160156 -3.546875 3.265625 -3.359375 C 3.378906 -3.171875 3.4375 -2.941406 3.4375 -2.671875 C 3.4375 -2.359375 3.351562 -2.097656 3.1875 -1.890625 C 3.019531 -1.679688 2.796875 -1.539062 2.515625 -1.46875 L 3.5 0 L 2.90625 0 L 1.9375 -1.421875 L 1.078125 -1.421875 L 1.078125 0 Z M 1.078125 -1.890625 L 2.03125 -1.890625 C 2.3125 -1.890625 2.53125 -1.957031 2.6875 -2.09375 C 2.851562 -2.226562 2.9375 -2.421875 2.9375 -2.671875 C 2.9375 -2.929688 2.851562 -3.128906 2.6875 -3.265625 C 2.53125 -3.398438 2.3125 -3.46875 2.03125 -3.46875 L 1.078125 -3.46875 Z M 1.078125 -1.890625 "/></g></g></g><g fill="#ffffff" fill-opacity="1"><g transform="translate(100.908265, 56.166451)"><g><path d="M 0.578125 0 L 0.578125 -3.953125 L 2.96875 -3.953125 L 2.96875 -3.484375 L 1.078125 -3.484375 L 1.078125 -2.234375 L 2.828125 -2.234375 L 2.828125 -1.78125 L 1.078125 -1.78125 L 1.078125 -0.46875 L 3.03125 -0.46875 L 3.03125 0 Z M 0.578125 0 "/></g></g></g><g fill="#ffffff" fill-opacity="1"><g transform="translate(108.819255, 56.166451)"><g/></g></g><g fill="#ffffff" fill-opacity="1"><g transform="translate(114.728529, 56.166451)"><g><path d="M 0.578125 0 L 0.578125 -3.953125 L 1.9375 -3.953125 C 2.34375 -3.953125 2.695312 -3.867188 3 -3.703125 C 3.300781 -3.535156 3.535156 -3.300781 3.703125 -3 C 3.878906 -2.707031 3.96875 -2.363281 3.96875 -1.96875 C 3.96875 -1.582031 3.878906 -1.238281 3.703125 -0.9375 C 3.535156 -0.644531 3.300781 -0.414062 3 -0.25 C 2.695312 -0.0820312 2.34375 0 1.9375 0 Z M 1.078125 -0.46875 L 1.9375 -0.46875 C 2.238281 -0.46875 2.503906 -0.53125 2.734375 -0.65625 C 2.960938 -0.789062 3.140625 -0.96875 3.265625 -1.1875 C 3.390625 -1.414062 3.453125 -1.675781 3.453125 -1.96875 C 3.453125 -2.269531 3.382812 -2.53125 3.25 -2.75 C 3.125 -2.976562 2.945312 -3.15625 2.71875 -3.28125 C 2.488281 -3.40625 2.222656 -3.46875 1.921875 -3.46875 L 1.078125 -3.46875 Z M 1.078125 -0.46875 "/></g></g></g><g fill="#ffffff" fill-opacity="1"><g transform="translate(123.530424, 56.166451)"><g><path d="M 0.578125 0 L 0.578125 -3.953125 L 2.96875 -3.953125 L 2.96875 -3.484375 L 1.078125 -3.484375 L 1.078125 -2.234375 L 2.828125 -2.234375 L 2.828125 -1.78125 L 1.078125 -1.78125 L 1.078125 -0.46875 L 3.03125 -0.46875 L 3.03125 0 Z M 0.578125 0 "/></g></g></g><g fill="#ffffff" fill-opacity="1"><g transform="translate(131.441414, 56.166451)"><g><path d="M 1.671875 0 L 0.09375 -3.953125 L 0.625 -3.953125 L 1.28125 -2.28125 L 1.90625 -0.71875 L 2.515625 -2.28125 L 3.171875 -3.953125 L 3.703125 -3.953125 L 2.125 0 Z M 1.671875 0 "/></g></g></g><g fill="#ffffff" fill-opacity="1"><g transform="translate(139.747105, 56.166451)"><g><path d="M 0.578125 0 L 0.578125 -3.953125 L 2.96875 -3.953125 L 2.96875 -3.484375 L 1.078125 -3.484375 L 1.078125 -2.234375 L 2.828125 -2.234375 L 2.828125 -1.78125 L 1.078125 -1.78125 L 1.078125 -0.46875 L 3.03125 -0.46875 L 3.03125 0 Z M 0.578125 0 "/></g></g></g><g fill="#ffffff" fill-opacity="1"><g transform="translate(147.658095, 56.166451)"><g><path d="M 0.578125 0 L 0.578125 -3.953125 L 1.078125 -3.953125 L 1.078125 -0.46875 L 2.984375 -0.46875 L 2.984375 0 Z M 0.578125 0 "/></g></g></g><g fill="#ffffff" fill-opacity="1"><g transform="translate(155.332258, 56.166451)"><g><path d="M 2.375 0.078125 C 1.96875 0.078125 1.609375 -0.0078125 1.296875 -0.1875 C 0.992188 -0.363281 0.753906 -0.601562 0.578125 -0.90625 C 0.410156 -1.21875 0.328125 -1.570312 0.328125 -1.96875 C 0.328125 -2.375 0.410156 -2.726562 0.578125 -3.03125 C 0.753906 -3.34375 0.992188 -3.582031 1.296875 -3.75 C 1.609375 -3.925781 1.96875 -4.015625 2.375 -4.015625 C 2.769531 -4.015625 3.117188 -3.925781 3.421875 -3.75 C 3.734375 -3.582031 3.976562 -3.34375 4.15625 -3.03125 C 4.332031 -2.726562 4.421875 -2.375 4.421875 -1.96875 C 4.421875 -1.570312 4.332031 -1.21875 4.15625 -0.90625 C 3.976562 -0.601562 3.734375 -0.363281 3.421875 -0.1875 C 3.117188 -0.0078125 2.769531 0.078125 2.375 0.078125 Z M 0.828125 -1.96875 C 0.828125 -1.664062 0.890625 -1.394531 1.015625 -1.15625 C 1.148438 -0.925781 1.332031 -0.742188 1.5625 -0.609375 C 1.800781 -0.484375 2.070312 -0.421875 2.375 -0.421875 C 2.675781 -0.421875 2.941406 -0.484375 3.171875 -0.609375 C 3.398438 -0.742188 3.578125 -0.925781 3.703125 -1.15625 C 3.835938 -1.394531 3.90625 -1.664062 3.90625 -1.96875 C 3.90625 -2.28125 3.835938 -2.550781 3.703125 -2.78125 C 3.578125 -3.007812 3.398438 -3.191406 3.171875 -3.328125 C 2.941406 -3.460938 2.675781 -3.53125 2.375 -3.53125 C 2.070312 -3.53125 1.800781 -3.460938 1.5625 -3.328125 C 1.332031 -3.191406 1.148438 -3.007812 1.015625 -2.78125 C 0.890625 -2.550781 0.828125 -2.28125 0.828125 -1.96875 Z M 0.828125 -1.96875 "/></g></g></g><g fill="#ffffff" fill-opacity="1"><g transform="translate(164.579608, 56.166451)"><g><path d="M 0.578125 0 L 0.578125 -3.953125 L 1.90625 -3.953125 C 2.207031 -3.953125 2.46875 -3.894531 2.6875 -3.78125 C 2.90625 -3.675781 3.070312 -3.523438 3.1875 -3.328125 C 3.3125 -3.128906 3.375 -2.894531 3.375 -2.625 C 3.375 -2.351562 3.3125 -2.117188 3.1875 -1.921875 C 3.070312 -1.722656 2.90625 -1.566406 2.6875 -1.453125 C 2.46875 -1.347656 2.207031 -1.296875 1.90625 -1.296875 L 1.078125 -1.296875 L 1.078125 0 Z M 1.078125 -1.765625 L 1.90625 -1.765625 C 2.550781 -1.765625 2.875 -2.050781 2.875 -2.625 C 2.875 -3.1875 2.550781 -3.46875 1.90625 -3.46875 L 1.078125 -3.46875 Z M 1.078125 -1.765625 "/></g></g></g><g fill="#ffffff" fill-opacity="1"><g transform="translate(172.693591, 56.166451)"><g><path d="M 0.578125 0 L 0.578125 -3.953125 L 2.96875 -3.953125 L 2.96875 -3.484375 L 1.078125 -3.484375 L 1.078125 -2.234375 L 2.828125 -2.234375 L 2.828125 -1.78125 L 1.078125 -1.78125 L 1.078125 -0.46875 L 3.03125 -0.46875 L 3.03125 0 Z M 0.578125 0 "/></g></g></g><g fill="#ffffff" fill-opacity="1"><g transform="translate(180.604582, 56.166451)"><g><path d="M 0.578125 0 L 0.578125 -3.953125 L 2.078125 -3.953125 C 2.359375 -3.953125 2.597656 -3.898438 2.796875 -3.796875 C 3.003906 -3.691406 3.160156 -3.546875 3.265625 -3.359375 C 3.378906 -3.171875 3.4375 -2.941406 3.4375 -2.671875 C 3.4375 -2.359375 3.351562 -2.097656 3.1875 -1.890625 C 3.019531 -1.679688 2.796875 -1.539062 2.515625 -1.46875 L 3.5 0 L 2.90625 0 L 1.9375 -1.421875 L 1.078125 -1.421875 L 1.078125 0 Z M 1.078125 -1.890625 L 2.03125 -1.890625 C 2.3125 -1.890625 2.53125 -1.957031 2.6875 -2.09375 C 2.851562 -2.226562 2.9375 -2.421875 2.9375 -2.671875 C 2.9375 -2.929688 2.851562 -3.128906 2.6875 -3.265625 C 2.53125 -3.398438 2.3125 -3.46875 2.03125 -3.46875 L 1.078125 -3.46875 Z M 1.078125 -1.890625 "/></g></g></g></svg>