<svg xmlns="http://www.w3.org/2000/svg" xmlns:xlink="http://www.w3.org/1999/xlink" width="200" zoomAndPan="magnify" viewBox="0 0 150 149.999998" height="200" preserveAspectRatio="xMidYMid meet" version="1.0"><defs><g/><clipPath id="fd973f3979"><path d="M 34.308594 15 L 95 15 L 95 76 L 34.308594 76 Z M 34.308594 15 " clip-rule="nonzero"/></clipPath><clipPath id="2698907413"><path d="M 74.714844 14.992188 C 54.066406 14.992188 55.355469 23.925781 55.355469 23.925781 L 55.378906 33.179688 L 75.082031 33.179688 L 75.082031 35.960938 L 47.554688 35.960938 C 47.554688 35.960938 34.34375 34.464844 34.34375 55.25 C 34.34375 76.039062 45.875 75.304688 45.875 75.304688 L 52.753906 75.304688 L 52.753906 65.65625 C 52.753906 65.65625 52.382812 54.148438 64.101562 54.148438 L 83.644531 54.148438 C 83.644531 54.148438 94.621094 54.328125 94.621094 43.5625 L 94.621094 25.761719 C 94.621094 25.761719 96.289062 14.992188 74.714844 14.992188 Z M 63.851562 21.214844 C 65.808594 21.214844 67.394531 22.796875 67.394531 24.753906 C 67.394531 26.707031 65.808594 28.289062 63.851562 28.289062 C 61.890625 28.289062 60.304688 26.707031 60.304688 24.753906 C 60.304688 22.796875 61.890625 21.214844 63.851562 21.214844 Z M 63.851562 21.214844 " clip-rule="nonzero"/></clipPath><linearGradient x1="0.00416844" gradientTransform="matrix(60.309703, 0, 0, 60.314837, 34.342042, 14.991182)" y1="-0.00405721" x2="1.027758" gradientUnits="userSpaceOnUse" y2="1.01158" id="99671fdfc2"><stop stop-opacity="1" stop-color="rgb(21.998596%, 49.398804%, 72.198486%)" offset="0"/><stop stop-opacity="1" stop-color="rgb(21.99707%, 49.383545%, 72.171021%)" offset="0.125"/><stop stop-opacity="1" stop-color="rgb(21.986389%, 49.269104%, 71.974182%)" offset="0.140625"/><stop stop-opacity="1" stop-color="rgb(21.966553%, 49.072266%, 71.633911%)" offset="0.15625"/><stop stop-opacity="1" stop-color="rgb(21.948242%, 48.875427%, 71.29364%)" offset="0.171875"/><stop stop-opacity="1" stop-color="rgb(21.928406%, 48.678589%, 70.953369%)" offset="0.1875"/><stop stop-opacity="1" stop-color="rgb(21.910095%, 48.48175%, 70.611572%)" offset="0.203125"/><stop stop-opacity="1" stop-color="rgb(21.890259%, 48.286438%, 70.271301%)" offset="0.21875"/><stop stop-opacity="1" stop-color="rgb(21.870422%, 48.0896%, 69.93103%)" offset="0.234375"/><stop stop-opacity="1" stop-color="rgb(21.852112%, 47.892761%, 69.590759%)" offset="0.25"/><stop stop-opacity="1" stop-color="rgb(21.832275%, 47.695923%, 69.250488%)" offset="0.265625"/><stop stop-opacity="1" stop-color="rgb(21.813965%, 47.499084%, 68.908691%)" offset="0.28125"/><stop stop-opacity="1" stop-color="rgb(21.794128%, 47.302246%, 68.56842%)" offset="0.296875"/><stop stop-opacity="1" stop-color="rgb(21.775818%, 47.105408%, 68.228149%)" offset="0.3125"/><stop stop-opacity="1" stop-color="rgb(21.755981%, 46.908569%, 67.887878%)" offset="0.328125"/><stop stop-opacity="1" stop-color="rgb(21.736145%, 46.711731%, 67.546082%)" offset="0.34375"/><stop stop-opacity="1" stop-color="rgb(21.717834%, 46.514893%, 67.205811%)" offset="0.359375"/><stop stop-opacity="1" stop-color="rgb(21.697998%, 46.31958%, 66.86554%)" offset="0.375"/><stop stop-opacity="1" stop-color="rgb(21.679688%, 46.122742%, 66.525269%)" offset="0.390625"/><stop stop-opacity="1" stop-color="rgb(21.659851%, 45.925903%, 66.184998%)" offset="0.40625"/><stop stop-opacity="1" stop-color="rgb(21.641541%, 45.729065%, 65.843201%)" offset="0.421875"/><stop stop-opacity="1" stop-color="rgb(21.621704%, 45.532227%, 65.50293%)" offset="0.4375"/><stop stop-opacity="1" stop-color="rgb(21.601868%, 45.335388%, 65.162659%)" offset="0.453125"/><stop stop-opacity="1" stop-color="rgb(21.583557%, 45.13855%, 64.822388%)" offset="0.46875"/><stop stop-opacity="1" stop-color="rgb(21.563721%, 44.941711%, 64.482117%)" offset="0.484375"/><stop stop-opacity="1" stop-color="rgb(21.54541%, 44.744873%, 64.14032%)" offset="0.494335"/><stop stop-opacity="1" stop-color="rgb(21.536255%, 44.647217%, 63.970947%)" offset="0.5"/><stop stop-opacity="1" stop-color="rgb(21.525574%, 44.548035%, 63.800049%)" offset="0.505665"/><stop stop-opacity="1" stop-color="rgb(21.516418%, 44.450378%, 63.630676%)" offset="0.515625"/><stop stop-opacity="1" stop-color="rgb(21.505737%, 44.352722%, 63.459778%)" offset="0.53125"/><stop stop-opacity="1" stop-color="rgb(21.487427%, 44.155884%, 63.119507%)" offset="0.546875"/><stop stop-opacity="1" stop-color="rgb(21.46759%, 43.959045%, 62.77771%)" offset="0.5625"/><stop stop-opacity="1" stop-color="rgb(21.44928%, 43.762207%, 62.437439%)" offset="0.578125"/><stop stop-opacity="1" stop-color="rgb(21.429443%, 43.565369%, 62.097168%)" offset="0.59375"/><stop stop-opacity="1" stop-color="rgb(21.411133%, 43.36853%, 61.756897%)" offset="0.609375"/><stop stop-opacity="1" stop-color="rgb(21.391296%, 43.171692%, 61.416626%)" offset="0.625"/><stop stop-opacity="1" stop-color="rgb(21.37146%, 42.974854%, 61.074829%)" offset="0.640625"/><stop stop-opacity="1" stop-color="rgb(21.353149%, 42.778015%, 60.734558%)" offset="0.65625"/><stop stop-opacity="1" stop-color="rgb(21.333313%, 42.582703%, 60.394287%)" offset="0.671875"/><stop stop-opacity="1" stop-color="rgb(21.315002%, 42.385864%, 60.054016%)" offset="0.6875"/><stop stop-opacity="1" stop-color="rgb(21.295166%, 42.189026%, 59.713745%)" offset="0.703125"/><stop stop-opacity="1" stop-color="rgb(21.276855%, 41.992188%, 59.371948%)" offset="0.71875"/><stop stop-opacity="1" stop-color="rgb(21.257019%, 41.795349%, 59.031677%)" offset="0.734375"/><stop stop-opacity="1" stop-color="rgb(21.237183%, 41.598511%, 58.691406%)" offset="0.75"/><stop stop-opacity="1" stop-color="rgb(21.218872%, 41.401672%, 58.351135%)" offset="0.765625"/><stop stop-opacity="1" stop-color="rgb(21.203613%, 41.25061%, 58.09021%)" offset="0.78125"/><stop stop-opacity="1" stop-color="rgb(21.199036%, 41.19873%, 57.998657%)" offset="0.8125"/><stop stop-opacity="1" stop-color="rgb(21.199036%, 41.19873%, 57.998657%)" offset="0.875"/><stop stop-opacity="1" stop-color="rgb(21.199036%, 41.19873%, 57.998657%)" offset="1"/></linearGradient><clipPath id="805b56f295"><path d="M 55 35 L 115.679688 35 L 115.679688 95.746094 L 55 95.746094 Z M 55 35 " clip-rule="nonzero"/></clipPath><clipPath id="0a025f1227"><path d="M 75.300781 95.722656 C 95.945312 95.722656 94.65625 86.785156 94.65625 86.785156 L 94.632812 77.53125 L 74.929688 77.53125 L 74.929688 74.753906 L 102.460938 74.753906 C 102.460938 74.753906 115.671875 76.246094 115.671875 55.460938 C 115.671875 34.671875 104.140625 35.410156 104.140625 35.410156 L 97.257812 35.410156 L 97.257812 45.054688 C 97.257812 45.054688 97.628906 56.5625 85.910156 56.5625 L 66.367188 56.5625 C 66.367188 56.5625 55.390625 56.386719 55.390625 67.152344 L 55.390625 84.949219 C 55.390625 84.949219 53.722656 95.722656 75.300781 95.722656 Z M 86.164062 89.496094 C 84.203125 89.496094 82.617188 87.914062 82.617188 85.960938 C 82.617188 84.003906 84.203125 82.425781 86.164062 82.425781 C 88.125 82.425781 89.707031 84.003906 89.707031 85.960938 C 89.707031 87.914062 88.125 89.496094 86.164062 89.496094 Z M 86.164062 89.496094 " clip-rule="nonzero"/></clipPath><linearGradient x1="-0.0326453" gradientTransform="matrix(60.31153, 0, 0, 60.315143, 55.360493, 35.407281)" y1="-0.00636588" x2="1.013978" gradientUnits="userSpaceOnUse" y2="0.985247" id="ba05dba3f1"><stop stop-opacity="1" stop-color="rgb(100%, 87.799072%, 32.199097%)" offset="0"/><stop stop-opacity="1" stop-color="rgb(100%, 87.799072%, 32.199097%)" offset="0.125"/><stop stop-opacity="1" stop-color="rgb(100%, 87.799072%, 32.199097%)" offset="0.1875"/><stop stop-opacity="1" stop-color="rgb(100%, 87.759399%, 32.15332%)" offset="0.21875"/><stop stop-opacity="1" stop-color="rgb(100%, 87.590027%, 31.959534%)" offset="0.234375"/><stop stop-opacity="1" stop-color="rgb(100%, 87.332153%, 31.661987%)" offset="0.25"/><stop stop-opacity="1" stop-color="rgb(100%, 87.07428%, 31.365967%)" offset="0.265625"/><stop stop-opacity="1" stop-color="rgb(100%, 86.816406%, 31.06842%)" offset="0.28125"/><stop stop-opacity="1" stop-color="rgb(100%, 86.558533%, 30.7724%)" offset="0.296875"/><stop stop-opacity="1" stop-color="rgb(100%, 86.300659%, 30.474854%)" offset="0.3125"/><stop stop-opacity="1" stop-color="rgb(100%, 86.04126%, 30.177307%)" offset="0.328125"/><stop stop-opacity="1" stop-color="rgb(100%, 85.783386%, 29.881287%)" offset="0.34375"/><stop stop-opacity="1" stop-color="rgb(100%, 85.525513%, 29.58374%)" offset="0.359375"/><stop stop-opacity="1" stop-color="rgb(100%, 85.267639%, 29.28772%)" offset="0.375"/><stop stop-opacity="1" stop-color="rgb(100%, 85.009766%, 28.990173%)" offset="0.390625"/><stop stop-opacity="1" stop-color="rgb(100%, 84.751892%, 28.694153%)" offset="0.40625"/><stop stop-opacity="1" stop-color="rgb(100%, 84.494019%, 28.396606%)" offset="0.421875"/><stop stop-opacity="1" stop-color="rgb(100%, 84.236145%, 28.100586%)" offset="0.4375"/><stop stop-opacity="1" stop-color="rgb(100%, 83.978271%, 27.80304%)" offset="0.453125"/><stop stop-opacity="1" stop-color="rgb(100%, 83.720398%, 27.505493%)" offset="0.46875"/><stop stop-opacity="1" stop-color="rgb(100%, 83.460999%, 27.209473%)" offset="0.482837"/><stop stop-opacity="1" stop-color="rgb(100%, 83.332825%, 27.061462%)" offset="0.484375"/><stop stop-opacity="1" stop-color="rgb(100%, 83.203125%, 26.911926%)" offset="0.5"/><stop stop-opacity="1" stop-color="rgb(100%, 82.945251%, 26.615906%)" offset="0.515625"/><stop stop-opacity="1" stop-color="rgb(100%, 82.687378%, 26.318359%)" offset="0.517163"/><stop stop-opacity="1" stop-color="rgb(100%, 82.559204%, 26.170349%)" offset="0.53125"/><stop stop-opacity="1" stop-color="rgb(100%, 82.429504%, 26.022339%)" offset="0.546875"/><stop stop-opacity="1" stop-color="rgb(100%, 82.171631%, 25.724792%)" offset="0.5625"/><stop stop-opacity="1" stop-color="rgb(100%, 81.913757%, 25.428772%)" offset="0.578125"/><stop stop-opacity="1" stop-color="rgb(100%, 81.655884%, 25.131226%)" offset="0.59375"/><stop stop-opacity="1" stop-color="rgb(100%, 81.39801%, 24.835205%)" offset="0.609375"/><stop stop-opacity="1" stop-color="rgb(100%, 81.138611%, 24.537659%)" offset="0.625"/><stop stop-opacity="1" stop-color="rgb(100%, 80.880737%, 24.240112%)" offset="0.640625"/><stop stop-opacity="1" stop-color="rgb(100%, 80.622864%, 23.944092%)" offset="0.65625"/><stop stop-opacity="1" stop-color="rgb(100%, 80.36499%, 23.646545%)" offset="0.671875"/><stop stop-opacity="1" stop-color="rgb(100%, 80.107117%, 23.350525%)" offset="0.6875"/><stop stop-opacity="1" stop-color="rgb(100%, 79.849243%, 23.052979%)" offset="0.703125"/><stop stop-opacity="1" stop-color="rgb(100%, 79.59137%, 22.756958%)" offset="0.71875"/><stop stop-opacity="1" stop-color="rgb(100%, 79.333496%, 22.459412%)" offset="0.734375"/><stop stop-opacity="1" stop-color="rgb(100%, 79.075623%, 22.163391%)" offset="0.75"/><stop stop-opacity="1" stop-color="rgb(100%, 78.816223%, 21.865845%)" offset="0.765625"/><stop stop-opacity="1" stop-color="rgb(100%, 78.55835%, 21.568298%)" offset="0.78125"/><stop stop-opacity="1" stop-color="rgb(100%, 78.300476%, 21.272278%)" offset="0.796875"/><stop stop-opacity="1" stop-color="rgb(100%, 78.042603%, 20.974731%)" offset="0.8125"/><stop stop-opacity="1" stop-color="rgb(100%, 77.784729%, 20.678711%)" offset="0.828125"/><stop stop-opacity="1" stop-color="rgb(100%, 77.526855%, 20.381165%)" offset="0.84375"/><stop stop-opacity="1" stop-color="rgb(100%, 77.268982%, 20.085144%)" offset="0.859375"/><stop stop-opacity="1" stop-color="rgb(100%, 77.011108%, 19.787598%)" offset="0.875"/><stop stop-opacity="1" stop-color="rgb(100%, 76.753235%, 19.491577%)" offset="0.890625"/><stop stop-opacity="1" stop-color="rgb(100%, 76.560974%, 19.270325%)" offset="0.90625"/><stop stop-opacity="1" stop-color="rgb(100%, 76.499939%, 19.198608%)" offset="0.9375"/><stop stop-opacity="1" stop-color="rgb(100%, 76.499939%, 19.198608%)" offset="1"/></linearGradient></defs><g clip-path="url(#fd973f3979)"><g clip-path="url(#2698907413)"><path fill="url(#99671fdfc2)" d="M 34.34375 15 L 34.34375 76.039062 L 96.289062 76.039062 L 96.289062 15 Z M 34.34375 15 " fill-rule="nonzero"/></g></g><g clip-path="url(#805b56f295)"><g clip-path="url(#0a025f1227)"><path fill="url(#ba05dba3f1)" d="M 53.722656 34.671875 L 53.722656 95.722656 L 115.671875 95.722656 L 115.671875 34.671875 Z M 53.722656 34.671875 " fill-rule="nonzero"/></g></g><g fill="#1a1a1a" fill-opacity="1"><g transform="translate(32.39046, 128.573813)"><g><path d="M 13.953125 -11.125 C 13.953125 -10.164062 13.734375 -9.289062 13.296875 -8.5 C 12.859375 -7.71875 12.1875 -7.085938 11.28125 -6.609375 C 10.375 -6.128906 9.253906 -5.890625 7.921875 -5.890625 L 5.4375 -5.890625 L 5.4375 0 L 1.453125 0 L 1.453125 -16.390625 L 7.921875 -16.390625 C 9.222656 -16.390625 10.328125 -16.164062 11.234375 -15.71875 C 12.140625 -15.269531 12.816406 -14.644531 13.265625 -13.84375 C 13.722656 -13.050781 13.953125 -12.144531 13.953125 -11.125 Z M 7.609375 -9.0625 C 8.378906 -9.0625 8.945312 -9.238281 9.3125 -9.59375 C 9.6875 -9.957031 9.875 -10.46875 9.875 -11.125 C 9.875 -11.769531 9.6875 -12.269531 9.3125 -12.625 C 8.945312 -12.988281 8.378906 -13.171875 7.609375 -13.171875 L 5.4375 -13.171875 L 5.4375 -9.0625 Z M 7.609375 -9.0625 "/></g></g></g><g fill="#1a1a1a" fill-opacity="1"><g transform="translate(46.970088, 128.573813)"><g><path d="M 14.765625 -13.03125 L 6.59375 6.1875 L 2.296875 6.1875 L 5.28125 -0.4375 L -0.015625 -13.03125 L 4.4375 -13.03125 L 7.453125 -4.875 L 10.4375 -13.03125 Z M 14.765625 -13.03125 "/></g></g></g><g fill="#1a1a1a" fill-opacity="1"><g transform="translate(61.736627, 128.573813)"><g><path d="M 8.71875 -3.390625 L 8.71875 0 L 6.6875 0 C 5.238281 0 4.109375 -0.351562 3.296875 -1.0625 C 2.484375 -1.769531 2.078125 -2.925781 2.078125 -4.53125 L 2.078125 -9.71875 L 0.484375 -9.71875 L 0.484375 -13.03125 L 2.078125 -13.03125 L 2.078125 -16.21875 L 6.078125 -16.21875 L 6.078125 -13.03125 L 8.6875 -13.03125 L 8.6875 -9.71875 L 6.078125 -9.71875 L 6.078125 -4.484375 C 6.078125 -4.097656 6.171875 -3.816406 6.359375 -3.640625 C 6.546875 -3.472656 6.851562 -3.390625 7.28125 -3.390625 Z M 8.71875 -3.390625 "/></g></g></g><g fill="#1a1a1a" fill-opacity="1"><g transform="translate(71.222732, 128.573813)"><g><path d="M 9.453125 -13.171875 C 10.953125 -13.171875 12.148438 -12.675781 13.046875 -11.6875 C 13.953125 -10.695312 14.40625 -9.335938 14.40625 -7.609375 L 14.40625 0 L 10.4375 0 L 10.4375 -7.078125 C 10.4375 -7.953125 10.210938 -8.628906 9.765625 -9.109375 C 9.316406 -9.585938 8.707031 -9.828125 7.9375 -9.828125 C 7.175781 -9.828125 6.566406 -9.585938 6.109375 -9.109375 C 5.660156 -8.628906 5.4375 -7.953125 5.4375 -7.078125 L 5.4375 0 L 1.453125 0 L 1.453125 -17.28125 L 5.4375 -17.28125 L 5.4375 -11.28125 C 5.84375 -11.851562 6.394531 -12.3125 7.09375 -12.65625 C 7.800781 -13 8.585938 -13.171875 9.453125 -13.171875 Z M 9.453125 -13.171875 "/></g></g></g><g fill="#1a1a1a" fill-opacity="1"><g transform="translate(86.970598, 128.573813)"><g><path d="M 7.375 0.1875 C 6.101562 0.1875 4.957031 -0.0820312 3.9375 -0.625 C 2.914062 -1.175781 2.113281 -1.957031 1.53125 -2.96875 C 0.945312 -3.976562 0.65625 -5.160156 0.65625 -6.515625 C 0.65625 -7.859375 0.945312 -9.039062 1.53125 -10.0625 C 2.125 -11.082031 2.9375 -11.863281 3.96875 -12.40625 C 5 -12.945312 6.148438 -13.21875 7.421875 -13.21875 C 8.703125 -13.21875 9.851562 -12.945312 10.875 -12.40625 C 11.90625 -11.863281 12.71875 -11.082031 13.3125 -10.0625 C 13.90625 -9.039062 14.203125 -7.859375 14.203125 -6.515625 C 14.203125 -5.179688 13.898438 -4.003906 13.296875 -2.984375 C 12.703125 -1.960938 11.882812 -1.175781 10.84375 -0.625 C 9.8125 -0.0820312 8.65625 0.1875 7.375 0.1875 Z M 7.375 -3.265625 C 8.144531 -3.265625 8.796875 -3.546875 9.328125 -4.109375 C 9.867188 -4.671875 10.140625 -5.472656 10.140625 -6.515625 C 10.140625 -7.554688 9.878906 -8.359375 9.359375 -8.921875 C 8.835938 -9.484375 8.191406 -9.765625 7.421875 -9.765625 C 6.648438 -9.765625 6.003906 -9.488281 5.484375 -8.9375 C 4.972656 -8.382812 4.71875 -7.578125 4.71875 -6.515625 C 4.71875 -5.472656 4.96875 -4.671875 5.46875 -4.109375 C 5.976562 -3.546875 6.613281 -3.265625 7.375 -3.265625 Z M 7.375 -3.265625 "/></g></g></g><g fill="#1a1a1a" fill-opacity="1"><g transform="translate(101.853963, 128.573813)"><g><path d="M 9.390625 -13.171875 C 10.910156 -13.171875 12.125 -12.675781 13.03125 -11.6875 C 13.945312 -10.695312 14.40625 -9.335938 14.40625 -7.609375 L 14.40625 0 L 10.4375 0 L 10.4375 -7.078125 C 10.4375 -7.953125 10.210938 -8.628906 9.765625 -9.109375 C 9.316406 -9.585938 8.707031 -9.828125 7.9375 -9.828125 C 7.175781 -9.828125 6.566406 -9.585938 6.109375 -9.109375 C 5.660156 -8.628906 5.4375 -7.953125 5.4375 -7.078125 L 5.4375 0 L 1.453125 0 L 1.453125 -13.03125 L 5.4375 -13.03125 L 5.4375 -11.3125 C 5.84375 -11.882812 6.390625 -12.335938 7.078125 -12.671875 C 7.765625 -13.003906 8.535156 -13.171875 9.390625 -13.171875 Z M 9.390625 -13.171875 "/></g></g></g></svg>