<svg xmlns="http://www.w3.org/2000/svg" xmlns:xlink="http://www.w3.org/1999/xlink" width="200" zoomAndPan="magnify" viewBox="0 0 150 149.999998" height="200" preserveAspectRatio="xMidYMid meet" version="1.0"><defs><g/><clipPath id="6fabedcb4b"><path d="M 34.53125 21 L 82 21 L 82 74 L 34.53125 74 Z M 34.53125 21 " clip-rule="nonzero"/></clipPath><clipPath id="570c7a8294"><path d="M 34.53125 15 L 82 15 L 82 29 L 34.53125 29 Z M 34.53125 15 " clip-rule="nonzero"/></clipPath><clipPath id="17a80f900b"><path d="M 34.53125 33 L 82 33 L 82 46 L 34.53125 46 Z M 34.53125 33 " clip-rule="nonzero"/></clipPath><clipPath id="6bf4a16e3e"><path d="M 34.53125 49 L 71 49 L 71 63 L 34.53125 63 Z M 34.53125 49 " clip-rule="nonzero"/></clipPath><clipPath id="08edb190a5"><path d="M 65 45 L 115.277344 45 L 115.277344 95.746094 L 65 95.746094 Z M 65 45 " clip-rule="nonzero"/></clipPath></defs><g clip-path="url(#6fabedcb4b)"><path fill="#4184a9" d="M 34.53125 21.960938 L 34.53125 66.507812 C 34.53125 70.355469 45.125 73.46875 58.199219 73.46875 C 60.660156 73.46875 63.042969 73.355469 65.285156 73.164062 L 81.863281 47.0625 L 81.863281 21.960938 L 34.53125 21.960938 " fill-opacity="1" fill-rule="nonzero"/></g><g clip-path="url(#570c7a8294)"><path fill="#35718a" d="M 81.863281 21.960938 C 81.863281 25.804688 71.269531 28.921875 58.199219 28.921875 C 45.128906 28.921875 34.53125 25.804688 34.53125 21.960938 C 34.53125 18.117188 45.128906 15 58.199219 15 C 71.269531 15 81.863281 18.117188 81.863281 21.960938 " fill-opacity="1" fill-rule="nonzero"/></g><g clip-path="url(#17a80f900b)"><path fill="#6de08e" d="M 34.53125 38.667969 C 34.53125 42.511719 45.128906 45.628906 58.199219 45.628906 C 71.269531 45.628906 81.863281 42.511719 81.863281 38.667969 L 81.863281 33.097656 C 81.863281 36.941406 71.269531 40.058594 58.199219 40.058594 C 45.128906 40.058594 34.53125 36.941406 34.53125 33.097656 L 34.53125 38.667969 " fill-opacity="1" fill-rule="nonzero"/></g><g clip-path="url(#6bf4a16e3e)"><path fill="#6de08e" d="M 66.761719 61.871094 C 64.097656 62.164062 61.214844 62.332031 58.199219 62.332031 C 45.125 62.332031 34.53125 59.21875 34.53125 55.371094 L 34.53125 49.804688 C 34.53125 53.648438 45.125 56.765625 58.199219 56.765625 C 62.511719 56.765625 66.566406 56.433594 70.046875 55.835938 L 66.761719 61.871094 " fill-opacity="1" fill-rule="nonzero"/></g><g clip-path="url(#08edb190a5)"><path fill="#35718a" d="M 115.277344 70.6875 C 115.277344 84.527344 104.058594 95.746094 90.21875 95.746094 C 76.378906 95.746094 65.160156 84.527344 65.160156 70.6875 C 65.160156 56.847656 76.378906 45.628906 90.21875 45.628906 C 104.058594 45.628906 115.277344 56.847656 115.277344 70.6875 " fill-opacity="1" fill-rule="nonzero"/></g><path fill="#ffffff" d="M 77.6875 63.726562 C 79.222656 63.726562 80.472656 64.976562 80.472656 66.507812 C 80.472656 67.277344 81.097656 67.902344 81.863281 67.902344 C 82.632812 67.902344 83.257812 67.277344 83.257812 66.507812 C 83.257812 63.4375 80.761719 60.941406 77.6875 60.941406 C 74.617188 60.941406 72.121094 63.4375 72.121094 66.507812 C 72.121094 69.582031 74.617188 72.078125 77.6875 72.078125 C 79.222656 72.078125 80.472656 73.328125 80.472656 74.863281 C 80.472656 76.394531 79.222656 77.648438 77.6875 77.648438 C 76.15625 77.648438 74.902344 76.394531 74.902344 74.863281 C 74.902344 74.09375 74.277344 73.46875 73.511719 73.46875 C 72.746094 73.46875 72.121094 74.09375 72.121094 74.863281 C 72.121094 77.933594 74.617188 80.429688 77.6875 80.429688 C 80.761719 80.429688 83.257812 77.933594 83.257812 74.863281 C 83.257812 71.789062 80.761719 69.292969 77.6875 69.292969 C 76.15625 69.292969 74.902344 68.042969 74.902344 66.507812 C 74.902344 64.976562 76.15625 63.726562 77.6875 63.726562 " fill-opacity="1" fill-rule="nonzero"/><path fill="#ffffff" d="M 94.160156 74.089844 C 93.734375 73.449219 92.871094 73.28125 92.230469 73.703125 C 91.589844 74.128906 91.414062 74.992188 91.84375 75.632812 L 92.949219 77.289062 C 92.546875 77.511719 92.09375 77.648438 91.609375 77.648438 C 90.078125 77.648438 88.824219 76.394531 88.824219 74.863281 L 88.824219 66.507812 C 88.824219 64.976562 90.078125 63.726562 91.609375 63.726562 C 93.144531 63.726562 94.394531 64.976562 94.394531 66.507812 L 94.394531 74.445312 Z M 91.609375 60.941406 C 88.539062 60.941406 86.042969 63.4375 86.042969 66.507812 L 86.042969 74.863281 C 86.042969 77.933594 88.539062 80.429688 91.609375 80.429688 C 92.671875 80.429688 93.648438 80.121094 94.492188 79.605469 L 94.628906 79.8125 C 94.894531 80.214844 95.335938 80.429688 95.785156 80.429688 C 96.054688 80.429688 96.320312 80.355469 96.558594 80.195312 C 97.199219 79.773438 97.375 78.910156 96.945312 78.265625 L 96.460938 77.542969 C 96.902344 76.742188 97.179688 75.839844 97.179688 74.863281 L 97.179688 66.507812 C 97.179688 63.4375 94.683594 60.941406 91.609375 60.941406 " fill-opacity="1" fill-rule="nonzero"/><path fill="#ffffff" d="M 106.921875 77.648438 L 102.746094 77.648438 L 102.746094 62.332031 C 102.746094 61.566406 102.121094 60.941406 101.355469 60.941406 C 100.589844 60.941406 99.960938 61.566406 99.960938 62.332031 L 99.960938 79.039062 C 99.960938 79.804688 100.589844 80.429688 101.355469 80.429688 L 106.921875 80.429688 C 107.691406 80.429688 108.316406 79.804688 108.316406 79.039062 C 108.316406 78.273438 107.691406 77.648438 106.921875 77.648438 " fill-opacity="1" fill-rule="nonzero"/><g fill="#1a1a1a" fill-opacity="1"><g transform="translate(53.033849, 128.573784)"><g><path d="M 7.375 0.15625 C 6.175781 0.15625 5.101562 -0.0351562 4.15625 -0.421875 C 3.207031 -0.804688 2.445312 -1.378906 1.875 -2.140625 C 1.3125 -2.910156 1.015625 -3.832031 0.984375 -4.90625 L 5.234375 -4.90625 C 5.296875 -4.300781 5.503906 -3.835938 5.859375 -3.515625 C 6.222656 -3.191406 6.691406 -3.03125 7.265625 -3.03125 C 7.859375 -3.03125 8.328125 -3.164062 8.671875 -3.4375 C 9.015625 -3.71875 9.1875 -4.097656 9.1875 -4.578125 C 9.1875 -4.984375 9.046875 -5.316406 8.765625 -5.578125 C 8.492188 -5.847656 8.160156 -6.066406 7.765625 -6.234375 C 7.367188 -6.410156 6.804688 -6.609375 6.078125 -6.828125 C 5.015625 -7.148438 4.144531 -7.472656 3.46875 -7.796875 C 2.800781 -8.128906 2.226562 -8.613281 1.75 -9.25 C 1.269531 -9.882812 1.03125 -10.71875 1.03125 -11.75 C 1.03125 -13.269531 1.582031 -14.460938 2.6875 -15.328125 C 3.789062 -16.191406 5.226562 -16.625 7 -16.625 C 8.8125 -16.625 10.269531 -16.191406 11.375 -15.328125 C 12.476562 -14.460938 13.070312 -13.257812 13.15625 -11.71875 L 8.828125 -11.71875 C 8.796875 -12.25 8.597656 -12.664062 8.234375 -12.96875 C 7.878906 -13.28125 7.425781 -13.4375 6.875 -13.4375 C 6.382812 -13.4375 5.988281 -13.304688 5.6875 -13.046875 C 5.394531 -12.785156 5.25 -12.414062 5.25 -11.9375 C 5.25 -11.40625 5.5 -10.988281 6 -10.6875 C 6.5 -10.394531 7.28125 -10.078125 8.34375 -9.734375 C 9.394531 -9.378906 10.25 -9.035156 10.90625 -8.703125 C 11.570312 -8.378906 12.144531 -7.90625 12.625 -7.28125 C 13.113281 -6.664062 13.359375 -5.863281 13.359375 -4.875 C 13.359375 -3.945312 13.117188 -3.097656 12.640625 -2.328125 C 12.171875 -1.566406 11.484375 -0.960938 10.578125 -0.515625 C 9.679688 -0.0664062 8.613281 0.15625 7.375 0.15625 Z M 7.375 0.15625 "/></g></g></g><g fill="#1a1a1a" fill-opacity="1"><g transform="translate(67.403186, 128.573784)"><g><path d="M 13.125 2.796875 L 11.03125 -0.015625 C 10.40625 0.0976562 9.796875 0.15625 9.203125 0.15625 C 7.660156 0.15625 6.242188 -0.195312 4.953125 -0.90625 C 3.671875 -1.625 2.648438 -2.625 1.890625 -3.90625 C 1.140625 -5.195312 0.765625 -6.644531 0.765625 -8.25 C 0.765625 -9.851562 1.140625 -11.289062 1.890625 -12.5625 C 2.648438 -13.84375 3.671875 -14.835938 4.953125 -15.546875 C 6.242188 -16.265625 7.660156 -16.625 9.203125 -16.625 C 10.742188 -16.625 12.15625 -16.265625 13.4375 -15.546875 C 14.726562 -14.835938 15.742188 -13.84375 16.484375 -12.5625 C 17.222656 -11.289062 17.59375 -9.851562 17.59375 -8.25 C 17.59375 -6.84375 17.304688 -5.554688 16.734375 -4.390625 C 16.171875 -3.234375 15.378906 -2.273438 14.359375 -1.515625 L 17.96875 2.796875 Z M 4.859375 -8.25 C 4.859375 -6.800781 5.25 -5.644531 6.03125 -4.78125 C 6.820312 -3.914062 7.878906 -3.484375 9.203125 -3.484375 C 10.515625 -3.484375 11.5625 -3.914062 12.34375 -4.78125 C 13.132812 -5.65625 13.53125 -6.8125 13.53125 -8.25 C 13.53125 -9.695312 13.132812 -10.851562 12.34375 -11.71875 C 11.5625 -12.582031 10.515625 -13.015625 9.203125 -13.015625 C 7.878906 -13.015625 6.820312 -12.582031 6.03125 -11.71875 C 5.25 -10.863281 4.859375 -9.707031 4.859375 -8.25 Z M 4.859375 -8.25 "/></g></g></g><g fill="#1a1a1a" fill-opacity="1"><g transform="translate(85.814635, 128.573784)"><g><path d="M 5.4375 -3.078125 L 10.671875 -3.078125 L 10.671875 0 L 1.453125 0 L 1.453125 -16.390625 L 5.4375 -16.390625 Z M 5.4375 -3.078125 "/></g></g></g></svg>