<svg xmlns="http://www.w3.org/2000/svg" xmlns:xlink="http://www.w3.org/1999/xlink" width="500" zoomAndPan="magnify" viewBox="0 0 375 374.999991" height="500" preserveAspectRatio="xMidYMid meet" version="1.0"><defs><clipPath id="34d05b4e57"><path d="M 56.511719 56.511719 L 318.261719 56.511719 L 318.261719 318.261719 L 56.511719 318.261719 Z M 56.511719 56.511719 " clip-rule="nonzero"/></clipPath><clipPath id="2add8aacc3"><path d="M 107.511719 56.511719 L 267.484375 56.511719 C 281.011719 56.511719 293.984375 61.882812 303.546875 71.449219 C 313.109375 81.011719 318.484375 93.984375 318.484375 107.511719 L 318.484375 267.484375 C 318.484375 281.011719 313.109375 293.984375 303.546875 303.546875 C 293.984375 313.109375 281.011719 318.484375 267.484375 318.484375 L 107.511719 318.484375 C 93.984375 318.484375 81.011719 313.109375 71.449219 303.546875 C 61.882812 293.984375 56.511719 281.011719 56.511719 267.484375 L 56.511719 107.511719 C 56.511719 93.984375 61.882812 81.011719 71.449219 71.449219 C 81.011719 61.882812 93.984375 56.511719 107.511719 56.511719 Z M 107.511719 56.511719 " clip-rule="nonzero"/></clipPath><clipPath id="da285a720c"><path d="M 89.238281 91.242188 L 285.738281 91.242188 L 285.738281 283.992188 L 89.238281 283.992188 Z M 89.238281 91.242188 " clip-rule="nonzero"/></clipPath></defs><g clip-path="url(#34d05b4e57)"><g clip-path="url(#2add8aacc3)"><path stroke-linecap="butt" transform="matrix(0.75, 0, 0, 0.75, 56.511315, 56.511265)" fill="none" stroke-linejoin="miter" d="M 68.000547 0.000604881 L 281.29745 0.000604881 C 299.33391 0.000604881 316.630787 7.162064 329.380789 19.917274 C 342.130791 32.667276 349.297458 49.964153 349.297458 68.000614 L 349.297458 281.297516 C 349.297458 299.333977 342.130791 316.630854 329.380789 329.380856 C 316.630787 342.130858 299.33391 349.297525 281.29745 349.297525 L 68.000547 349.297525 C 49.964086 349.297525 32.667209 342.130858 19.917207 329.380856 C 7.161997 316.630854 0.000538081 299.333977 0.000538081 281.297516 L 0.000538081 68.000614 C 0.000538081 49.964153 7.161997 32.667276 19.917207 19.917274 C 32.667209 7.162064 49.964086 0.000604881 68.000547 0.000604881 Z M 68.000547 0.000604881 " stroke="#f91762" stroke-width="36" stroke-opacity="1" stroke-miterlimit="4"/></g></g><g clip-path="url(#da285a720c)"><path fill="#f91762" d="M 187.207031 91.242188 C 133.035156 91.242188 89.242188 135.359375 89.242188 189.933594 C 89.242188 233.5625 117.300781 270.488281 156.226562 283.558594 C 161.09375 284.542969 162.875 281.4375 162.875 278.824219 C 162.875 276.535156 162.714844 268.691406 162.714844 260.523438 C 135.464844 266.40625 129.789062 248.757812 129.789062 248.757812 C 125.410156 237.320312 118.921875 234.378906 118.921875 234.378906 C 110 228.332031 119.570312 228.332031 119.570312 228.332031 C 129.464844 228.988281 134.65625 238.464844 134.65625 238.464844 C 143.414062 253.496094 157.523438 249.25 163.203125 246.632812 C 164.011719 240.261719 166.609375 235.847656 169.367188 233.398438 C 147.628906 231.109375 124.761719 222.613281 124.761719 184.707031 C 124.761719 173.921875 128.652344 165.097656 134.816406 158.234375 C 133.84375 155.785156 130.4375 145.652344 135.792969 132.089844 C 135.792969 132.089844 144.0625 129.476562 162.714844 142.222656 C 170.734375 140.050781 178.898438 138.960938 187.207031 138.953125 C 195.476562 138.953125 203.910156 140.097656 211.695312 142.222656 C 230.347656 129.476562 238.621094 132.089844 238.621094 132.089844 C 243.972656 145.652344 240.566406 155.785156 239.59375 158.234375 C 245.917969 165.097656 249.648438 173.921875 249.648438 184.707031 C 249.648438 222.613281 226.78125 230.945312 204.882812 233.398438 C 208.453125 236.503906 211.535156 242.382812 211.535156 251.699219 C 211.535156 264.933594 211.375 275.554688 211.375 278.820312 C 211.375 281.4375 213.15625 284.542969 218.023438 283.5625 C 256.949219 270.488281 285.007812 233.5625 285.007812 189.933594 C 285.167969 135.359375 241.214844 91.242188 187.207031 91.242188 Z M 187.207031 91.242188 " fill-opacity="1" fill-rule="evenodd"/></g></svg>