<svg xmlns="http://www.w3.org/2000/svg" xmlns:xlink="http://www.w3.org/1999/xlink" width="500" zoomAndPan="magnify" viewBox="0 0 375 374.999991" height="500" preserveAspectRatio="xMidYMid meet" version="1.0"><defs><clipPath id="a5331c0e64"><path d="M 56.511719 56.511719 L 318.261719 56.511719 L 318.261719 318.261719 L 56.511719 318.261719 Z M 56.511719 56.511719 " clip-rule="nonzero"/></clipPath><clipPath id="0e952e6481"><path d="M 107.511719 56.511719 L 267.484375 56.511719 C 281.011719 56.511719 293.984375 61.882812 303.546875 71.449219 C 313.109375 81.011719 318.484375 93.984375 318.484375 107.511719 L 318.484375 267.484375 C 318.484375 281.011719 313.109375 293.984375 303.546875 303.546875 C 293.984375 313.109375 281.011719 318.484375 267.484375 318.484375 L 107.511719 318.484375 C 93.984375 318.484375 81.011719 313.109375 71.449219 303.546875 C 61.882812 293.984375 56.511719 281.011719 56.511719 267.484375 L 56.511719 107.511719 C 56.511719 93.984375 61.882812 81.011719 71.449219 71.449219 C 81.011719 61.882812 93.984375 56.511719 107.511719 56.511719 Z M 107.511719 56.511719 " clip-rule="nonzero"/></clipPath><clipPath id="1f337b2562"><path d="M 89.667969 89.667969 L 285.332031 89.667969 L 285.332031 285.332031 L 89.667969 285.332031 Z M 89.667969 89.667969 " clip-rule="nonzero"/></clipPath><clipPath id="36df617db1"><path d="M 145.917969 89.667969 L 229.082031 89.667969 C 244 89.667969 258.308594 95.59375 268.859375 106.140625 C 279.40625 116.691406 285.332031 131 285.332031 145.917969 L 285.332031 229.082031 C 285.332031 260.148438 260.148438 285.332031 229.082031 285.332031 L 145.917969 285.332031 C 131 285.332031 116.691406 279.40625 106.140625 268.859375 C 95.59375 258.308594 89.667969 244 89.667969 229.082031 L 89.667969 145.917969 C 89.667969 114.851562 114.851562 89.667969 145.917969 89.667969 Z M 145.917969 89.667969 " clip-rule="nonzero"/></clipPath><clipPath id="0b0b0ed8d1"><path d="M 89.667969 89.667969 L 285.417969 89.667969 L 285.417969 285.417969 L 89.667969 285.417969 Z M 89.667969 89.667969 " clip-rule="nonzero"/></clipPath><clipPath id="7f1fa579ef"><path d="M 145.914062 89.667969 L 229.074219 89.667969 C 243.992188 89.667969 258.300781 95.59375 268.847656 106.140625 C 279.398438 116.691406 285.324219 130.996094 285.324219 145.914062 L 285.324219 229.074219 C 285.324219 260.140625 260.140625 285.324219 229.074219 285.324219 L 145.914062 285.324219 C 130.996094 285.324219 116.691406 279.398438 106.140625 268.847656 C 95.59375 258.300781 89.667969 243.992188 89.667969 229.074219 L 89.667969 145.914062 C 89.667969 114.851562 114.851562 89.667969 145.914062 89.667969 Z M 145.914062 89.667969 " clip-rule="nonzero"/></clipPath><clipPath id="ee6c1c0fcc"><path d="M 227.910156 123.46875 L 251.367188 123.46875 L 251.367188 146.925781 L 227.910156 146.925781 Z M 227.910156 123.46875 " clip-rule="nonzero"/></clipPath><clipPath id="82e40ad95d"><path d="M 239.640625 123.46875 C 233.164062 123.46875 227.910156 128.71875 227.910156 135.195312 C 227.910156 141.675781 233.164062 146.925781 239.640625 146.925781 C 246.117188 146.925781 251.367188 141.675781 251.367188 135.195312 C 251.367188 128.71875 246.117188 123.46875 239.640625 123.46875 Z M 239.640625 123.46875 " clip-rule="nonzero"/></clipPath><clipPath id="03ca41569e"><path d="M 137.257812 137.257812 L 237.734375 137.257812 L 237.734375 237.734375 L 137.257812 237.734375 Z M 137.257812 137.257812 " clip-rule="nonzero"/></clipPath><clipPath id="5832abb586"><path d="M 187.496094 137.257812 C 159.75 137.257812 137.257812 159.75 137.257812 187.496094 C 137.257812 215.242188 159.75 237.734375 187.496094 237.734375 C 215.242188 237.734375 237.734375 215.242188 237.734375 187.496094 C 237.734375 159.75 215.242188 137.257812 187.496094 137.257812 Z M 187.496094 137.257812 " clip-rule="nonzero"/></clipPath></defs><g clip-path="url(#a5331c0e64)"><g clip-path="url(#0e952e6481)"><path stroke-linecap="butt" transform="matrix(0.75, 0, 0, 0.75, 56.511315, 56.511311)" fill="none" stroke-linejoin="miter" d="M 68.000547 0.000544081 L 281.29745 0.000544081 C 299.33391 0.000544081 316.630787 7.162003 329.380789 19.917213 C 342.130791 32.667215 349.297458 49.964092 349.297458 68.000553 L 349.297458 281.297456 C 349.297458 299.333916 342.130791 316.630793 329.380789 329.380795 C 316.630787 342.130797 299.33391 349.297464 281.29745 349.297464 L 68.000547 349.297464 C 49.964086 349.297464 32.667209 342.130797 19.917207 329.380795 C 7.161997 316.630793 0.000538081 299.333916 0.000538081 281.297456 L 0.000538081 68.000553 C 0.000538081 49.964092 7.161997 32.667215 19.917207 19.917213 C 32.667209 7.162003 49.964086 0.000544081 68.000547 0.000544081 Z M 68.000547 0.000544081 " stroke="#f91762" stroke-width="36" stroke-opacity="1" stroke-miterlimit="4"/></g></g><g clip-path="url(#1f337b2562)"><g clip-path="url(#36df617db1)"><path fill="#f91762" d="M 89.667969 89.667969 L 285.332031 89.667969 L 285.332031 285.332031 L 89.667969 285.332031 Z M 89.667969 89.667969 " fill-opacity="1" fill-rule="nonzero"/></g></g><g clip-path="url(#0b0b0ed8d1)"><g clip-path="url(#7f1fa579ef)"><path stroke-linecap="butt" transform="matrix(0.75, 0, 0, 0.75, 89.667107, 89.667102)" fill="none" stroke-linejoin="miter" d="M 74.995946 0.00115552 L 185.876162 0.00115552 C 205.766788 0.00115552 224.844914 7.902198 238.907415 21.964699 C 252.975124 36.032408 260.876167 55.105326 260.876167 74.995952 L 260.876167 185.876168 C 260.876167 227.298045 227.298039 260.876173 185.876162 260.876173 L 74.995946 260.876173 C 55.10532 260.876173 36.032402 252.97513 21.964693 238.907421 C 7.902192 224.84492 0.00114952 205.766794 0.00114952 185.876168 L 0.00114952 74.995952 C 0.00114952 33.579283 33.579277 0.00115552 74.995946 0.00115552 Z M 74.995946 0.00115552 " stroke="#f91762" stroke-width="48" stroke-opacity="1" stroke-miterlimit="4"/></g></g><g clip-path="url(#ee6c1c0fcc)"><g clip-path="url(#82e40ad95d)"><path fill="#1a1a1a" d="M 227.910156 123.46875 L 251.367188 123.46875 L 251.367188 146.925781 L 227.910156 146.925781 Z M 227.910156 123.46875 " fill-opacity="1" fill-rule="nonzero"/></g></g><g clip-path="url(#03ca41569e)"><g clip-path="url(#5832abb586)"><path stroke-linecap="butt" transform="matrix(0.75, 0, 0, 0.75, 137.258227, 137.258223)" fill="none" stroke-linejoin="miter" d="M 66.983826 -0.000547316 C 29.989032 -0.000547316 -0.000553316 29.989038 -0.000553316 66.983832 C -0.000553316 103.978626 29.989032 133.968211 66.983826 133.968211 C 103.97862 133.968211 133.968205 103.978626 133.968205 66.983832 C 133.968205 29.989038 103.97862 -0.000547316 66.983826 -0.000547316 Z M 66.983826 -0.000547316 " stroke="#1a1a1a" stroke-width="46" stroke-opacity="1" stroke-miterlimit="4"/></g></g></svg>