<svg xmlns="http://www.w3.org/2000/svg" xmlns:xlink="http://www.w3.org/1999/xlink" width="500" zoomAndPan="magnify" viewBox="0 0 375 374.999991" height="500" preserveAspectRatio="xMidYMid meet" version="1.0"><defs><clipPath id="d8c02d2493"><path d="M 56.511719 50.144531 L 318.261719 50.144531 L 318.261719 311.894531 L 56.511719 311.894531 Z M 56.511719 50.144531 " clip-rule="nonzero"/></clipPath><clipPath id="f00d09908a"><path d="M 107.511719 50.144531 L 267.484375 50.144531 C 281.011719 50.144531 293.984375 55.515625 303.546875 65.082031 C 313.109375 74.644531 318.484375 87.617188 318.484375 101.140625 L 318.484375 261.117188 C 318.484375 274.640625 313.109375 287.613281 303.546875 297.179688 C 293.984375 306.742188 281.011719 312.117188 267.484375 312.117188 L 107.511719 312.117188 C 93.984375 312.117188 81.011719 306.742188 71.449219 297.179688 C 61.882812 287.613281 56.511719 274.640625 56.511719 261.117188 L 56.511719 101.140625 C 56.511719 87.617188 61.882812 74.644531 71.449219 65.082031 C 81.011719 55.515625 93.984375 50.144531 107.511719 50.144531 Z M 107.511719 50.144531 " clip-rule="nonzero"/></clipPath><clipPath id="db5f91dc5b"><path d="M 90 83.296875 L 285 83.296875 L 285 278 L 90 278 Z M 90 83.296875 " clip-rule="nonzero"/></clipPath></defs><g clip-path="url(#d8c02d2493)"><g clip-path="url(#f00d09908a)"><path stroke-linecap="butt" transform="matrix(0.75, 0, 0, 0.75, 56.511315, 50.142798)" fill="none" stroke-linejoin="miter" d="M 68.000547 0.00231059 L 281.29745 0.00231059 C 299.33391 0.00231059 316.630787 7.16377 329.380789 19.91898 C 342.130791 32.668981 349.297458 49.965859 349.297458 67.997111 L 349.297458 281.299222 C 349.297458 299.330474 342.130791 316.627352 329.380789 329.382562 C 316.630787 342.132563 299.33391 349.299231 281.29745 349.299231 L 68.000547 349.299231 C 49.964086 349.299231 32.667209 342.132563 19.917207 329.382562 C 7.161997 316.627352 0.000538081 299.330474 0.000538081 281.299222 L 0.000538081 67.997111 C 0.000538081 49.965859 7.161997 32.668981 19.917207 19.91898 C 32.667209 7.16377 49.964086 0.00231059 68.000547 0.00231059 Z M 68.000547 0.00231059 " stroke="#f91762" stroke-width="36" stroke-opacity="1" stroke-miterlimit="4"/></g></g><g clip-path="url(#db5f91dc5b)"><path fill="#f91762" d="M 255.722656 248.640625 L 226.96875 248.640625 L 226.96875 203.609375 C 226.96875 192.875 226.777344 179.050781 212.015625 179.050781 C 197.039062 179.050781 194.75 190.75 194.75 202.828125 L 194.75 248.636719 L 165.996094 248.636719 L 165.996094 156.039062 L 193.597656 156.039062 L 193.597656 168.695312 L 193.984375 168.695312 C 194.671875 167.519531 195.4375 166.394531 196.273438 165.324219 C 197.113281 164.25 198.023438 163.238281 198.996094 162.289062 C 199.972656 161.339844 201.007812 160.460938 202.101562 159.648438 C 203.199219 158.839844 204.339844 158.105469 205.535156 157.453125 C 206.730469 156.796875 207.960938 156.222656 209.230469 155.734375 C 210.503906 155.246094 211.800781 154.84375 213.125 154.53125 C 214.449219 154.214844 215.789062 153.992188 217.144531 153.859375 C 218.5 153.726562 219.859375 153.6875 221.21875 153.738281 C 250.363281 153.738281 255.734375 172.90625 255.734375 197.84375 Z M 133.554688 143.382812 C 133.007812 143.382812 132.460938 143.355469 131.917969 143.304688 C 131.375 143.25 130.835938 143.167969 130.296875 143.0625 C 129.761719 142.957031 129.234375 142.824219 128.710938 142.664062 C 128.1875 142.507812 127.671875 142.324219 127.167969 142.113281 C 126.664062 141.90625 126.167969 141.671875 125.6875 141.414062 C 125.207031 141.15625 124.738281 140.875 124.28125 140.574219 C 123.828125 140.269531 123.390625 139.945312 122.96875 139.597656 C 122.546875 139.25 122.140625 138.882812 121.753906 138.496094 C 121.367188 138.113281 121 137.707031 120.652344 137.285156 C 120.308594 136.863281 119.980469 136.425781 119.679688 135.96875 C 119.375 135.515625 119.09375 135.046875 118.835938 134.566406 C 118.578125 134.082031 118.34375 133.589844 118.136719 133.085938 C 117.925781 132.582031 117.742188 132.066406 117.585938 131.542969 C 117.425781 131.019531 117.292969 130.492188 117.1875 129.957031 C 117.078125 129.417969 117 128.878906 116.945312 128.335938 C 116.890625 127.792969 116.863281 127.246094 116.863281 126.699219 C 116.863281 126.152344 116.890625 125.609375 116.945312 125.066406 C 117 124.519531 117.078125 123.980469 117.183594 123.445312 C 117.292969 122.910156 117.425781 122.378906 117.582031 121.855469 C 117.742188 121.332031 117.925781 120.820312 118.132812 120.316406 C 118.34375 119.808594 118.578125 119.316406 118.832031 118.835938 C 119.089844 118.351562 119.371094 117.882812 119.675781 117.429688 C 119.980469 116.976562 120.304688 116.535156 120.652344 116.113281 C 120.996094 115.691406 121.363281 115.289062 121.75 114.902344 C 122.136719 114.515625 122.539062 114.148438 122.960938 113.800781 C 123.386719 113.453125 123.824219 113.128906 124.277344 112.824219 C 124.730469 112.523438 125.199219 112.242188 125.683594 111.984375 C 126.164062 111.726562 126.65625 111.492188 127.160156 111.28125 C 127.667969 111.074219 128.179688 110.890625 128.703125 110.730469 C 129.226562 110.574219 129.757812 110.441406 130.292969 110.332031 C 130.828125 110.226562 131.367188 110.144531 131.910156 110.09375 C 132.457031 110.039062 133 110.011719 133.546875 110.011719 C 134.09375 110.011719 134.640625 110.039062 135.183594 110.089844 C 135.726562 110.144531 136.265625 110.226562 136.800781 110.332031 C 137.339844 110.4375 137.867188 110.570312 138.390625 110.730469 C 138.914062 110.886719 139.429688 111.070312 139.933594 111.28125 C 140.4375 111.488281 140.929688 111.722656 141.414062 111.980469 C 141.894531 112.238281 142.363281 112.519531 142.816406 112.820312 C 143.273438 113.125 143.710938 113.449219 144.132812 113.796875 C 144.554688 114.144531 144.960938 114.511719 145.347656 114.898438 C 145.734375 115.28125 146.101562 115.6875 146.445312 116.109375 C 146.792969 116.53125 147.117188 116.96875 147.421875 117.425781 C 147.726562 117.878906 148.007812 118.347656 148.265625 118.828125 C 148.523438 119.3125 148.753906 119.804688 148.964844 120.308594 C 149.175781 120.8125 149.359375 121.328125 149.515625 121.851562 C 149.675781 122.375 149.808594 122.902344 149.914062 123.4375 C 150.019531 123.976562 150.101562 124.515625 150.15625 125.058594 C 150.210938 125.601562 150.234375 126.148438 150.234375 126.695312 C 150.234375 127.242188 150.210938 127.785156 150.15625 128.328125 C 150.101562 128.875 150.023438 129.414062 149.917969 129.949219 C 149.808594 130.484375 149.675781 131.015625 149.519531 131.539062 C 149.359375 132.0625 149.175781 132.574219 148.96875 133.078125 C 148.757812 133.585938 148.523438 134.078125 148.265625 134.558594 C 148.007812 135.042969 147.730469 135.511719 147.425781 135.964844 C 147.121094 136.417969 146.796875 136.859375 146.449219 137.28125 C 146.105469 137.703125 145.738281 138.105469 145.351562 138.492188 C 144.964844 138.878906 144.558594 139.246094 144.136719 139.59375 C 143.714844 139.941406 143.277344 140.265625 142.824219 140.570312 C 142.367188 140.871094 141.902344 141.152344 141.417969 141.410156 C 140.9375 141.667969 140.445312 141.902344 139.9375 142.113281 C 139.433594 142.320312 138.917969 142.503906 138.398438 142.664062 C 137.875 142.820312 137.34375 142.953125 136.808594 143.0625 C 136.273438 143.167969 135.734375 143.25 135.1875 143.300781 C 134.644531 143.355469 134.101562 143.382812 133.554688 143.382812 M 147.929688 248.640625 L 119.148438 248.640625 L 119.148438 156.039062 L 147.929688 156.039062 Z M 270.058594 83.3125 L 104.699219 83.3125 C 103.769531 83.300781 102.847656 83.378906 101.933594 83.550781 C 101.019531 83.722656 100.132812 83.980469 99.269531 84.324219 C 98.410156 84.671875 97.585938 85.097656 96.808594 85.605469 C 96.03125 86.113281 95.308594 86.691406 94.644531 87.339844 C 93.980469 87.988281 93.382812 88.699219 92.859375 89.464844 C 92.332031 90.230469 91.886719 91.039062 91.523438 91.894531 C 91.15625 92.75 90.875 93.632812 90.683594 94.539062 C 90.492188 95.449219 90.390625 96.367188 90.378906 97.296875 L 90.378906 263.339844 C 90.390625 264.269531 90.492188 265.191406 90.683594 266.101562 C 90.875 267.011719 91.152344 267.890625 91.519531 268.746094 C 91.886719 269.601562 92.332031 270.414062 92.855469 271.179688 C 93.382812 271.945312 93.976562 272.65625 94.640625 273.304688 C 95.304688 273.957031 96.027344 274.535156 96.804688 275.042969 C 97.585938 275.550781 98.40625 275.976562 99.269531 276.324219 C 100.132812 276.671875 101.019531 276.929688 101.933594 277.101562 C 102.847656 277.273438 103.769531 277.351562 104.699219 277.34375 L 270.058594 277.34375 C 270.988281 277.355469 271.910156 277.277344 272.828125 277.105469 C 273.742188 276.9375 274.632812 276.679688 275.5 276.332031 C 276.363281 275.988281 277.1875 275.5625 277.96875 275.054688 C 278.75 274.546875 279.472656 273.96875 280.140625 273.316406 C 280.808594 272.667969 281.40625 271.957031 281.933594 271.191406 C 282.460938 270.421875 282.910156 269.613281 283.277344 268.753906 C 283.648438 267.898438 283.929688 267.015625 284.121094 266.105469 C 284.316406 265.195312 284.421875 264.273438 284.433594 263.339844 L 284.433594 97.285156 C 284.417969 96.355469 284.316406 95.433594 284.121094 94.523438 C 283.925781 93.613281 283.644531 92.730469 283.277344 91.875 C 282.910156 91.019531 282.460938 90.207031 281.933594 89.441406 C 281.40625 88.675781 280.808594 87.964844 280.140625 87.316406 C 279.472656 86.667969 278.746094 86.089844 277.964844 85.582031 C 277.183594 85.074219 276.363281 84.648438 275.496094 84.304688 C 274.632812 83.960938 273.742188 83.703125 272.828125 83.535156 C 271.910156 83.363281 270.988281 83.285156 270.058594 83.296875 " fill-opacity="1" fill-rule="nonzero"/></g></svg>